<svg width="202" height="24" viewBox="0 0 202 24" fill="none" xmlns="http://www.w3.org/2000/svg">
<path fill-rule="evenodd" clip-rule="evenodd" d="M5.84602 14.5217C5.7395 14.6961 3.42462 20.1681 3.51426 20.8565C3.58375 21.3977 4.1287 22.4733 4.59505 22.366C4.76328 22.3268 6.62804 19.1733 7.57764 17.5053C7.61011 17.5268 7.71339 17.6316 7.74651 17.6525C6.65532 19.5251 4.8711 22.2965 4.85811 22.5074C4.83537 22.8839 6.46631 22.7727 6.85732 22.5996C7.62375 22.2605 9.3859 19.5706 9.56192 19.2959L5.75509 12.5935C5.68819 13.0217 5.70963 13.8365 5.84602 14.5211V14.5217ZM6.44878 11.3632C6.17533 11.3127 5.91877 11.3733 5.69793 11.5211C5.5466 11.6228 5.42903 11.7434 5.35889 11.8944L5.45112 12.0573C5.49658 11.883 5.6148 11.7415 5.78042 11.631C5.96943 11.5041 6.18702 11.4516 6.4215 11.4946C6.4215 11.4946 6.43838 11.4977 6.47346 11.5009C6.53711 11.5053 6.51892 11.3796 6.44878 11.3632Z" fill="#1B2F64"/>
<path fill-rule="evenodd" clip-rule="evenodd" d="M6.60755 11.5789C6.33457 11.5283 6.08108 11.5902 5.86009 11.738C5.69565 11.8486 5.57346 11.9894 5.50781 12.1574L5.59881 12.3191C5.63391 12.1252 5.7613 11.9686 5.94264 11.8473C6.13178 11.721 6.34562 11.6673 6.5796 11.7109C6.5796 11.7109 6.59455 11.714 6.62705 11.7178C6.69075 11.7241 6.6784 11.5953 6.60755 11.5789Z" fill="#1B2F64"/>
<path fill-rule="evenodd" clip-rule="evenodd" d="M6.78514 11.8241C6.5052 11.7779 6.25254 11.8361 6.0317 11.9838C5.86023 12.0988 5.73097 12.2504 5.66797 12.4266L5.76085 12.5946C5.79138 12.3931 5.90699 12.2182 6.0934 12.0931C6.28306 11.9668 6.52858 11.9163 6.71499 11.9561L6.78904 11.9617C6.85269 11.9662 6.8319 11.8405 6.78514 11.8241ZM9.30917 16.3203C9.02727 16.2685 8.76357 16.331 8.53494 16.4845C8.37906 16.5887 8.2576 16.7245 8.18615 16.8811L8.28358 17.0497C8.33034 16.8697 8.4492 16.7112 8.62003 16.5969C8.81488 16.4662 9.03897 16.4118 9.28124 16.4567C9.28124 16.4567 9.29877 16.4598 9.3345 16.463C9.40075 16.4674 9.38256 16.3379 9.30852 16.3209" fill="#1B2F64"/>
<path fill-rule="evenodd" clip-rule="evenodd" d="M9.46687 16.5425C9.18479 16.4901 8.92415 16.5538 8.69601 16.7067C8.52702 16.8204 8.40028 16.9713 8.33203 17.1437L8.43018 17.3256C8.46592 17.1248 8.59397 16.9442 8.78116 16.8191C8.97615 16.6884 9.19713 16.6334 9.43827 16.6783C9.43827 16.6783 9.45322 16.6814 9.48702 16.6852C9.55202 16.6922 9.53967 16.5589 9.46687 16.5425Z" fill="#1B2F64"/>
<path fill-rule="evenodd" clip-rule="evenodd" d="M9.63201 16.7898C9.3748 16.7418 9.09161 16.8018 8.86428 16.954C8.68696 17.0727 8.55316 17.2477 8.48886 17.4296L8.59148 17.5969C8.62266 17.3898 8.75906 17.1959 8.95132 17.067C9.14617 16.9363 9.39884 16.8845 9.60863 16.9256C9.60863 16.9256 9.62422 16.9287 9.65994 16.9319C9.72554 16.9363 9.67878 16.8068 9.63201 16.7898ZM14.4962 5.82747C14.7632 5.82873 14.9795 5.63862 14.9795 5.40557C14.9795 5.17252 14.7632 4.98873 14.4962 4.98305C14.2332 4.97862 14.013 5.17252 14.013 5.40557C14.013 5.63862 14.2403 5.8262 14.4962 5.82747Z" fill="#1B2F64"/>
<path fill-rule="evenodd" clip-rule="evenodd" d="M15.6056 11.4821C15.5037 12.0909 15.2088 12.8059 14.9379 13.2758L14.7937 11.2661L15.4842 9.90755C15.5608 10.3838 15.7063 10.8783 15.6056 11.4821ZM7.73349 7.89471L6.23375 8.99871C6.58969 8.2604 6.88067 7.7185 7.32364 7.20503C7.59189 6.89492 8.10566 6.45471 8.10566 6.45471L7.73349 7.89471ZM0.140625 0.248185L5.89275 10.0945C5.96485 9.87534 6.04864 9.6524 6.12268 9.45913L7.92574 8.15366L8.35897 6.38082C8.71815 6.05997 9.34689 5.58882 9.38521 5.55282C10.7024 4.32313 11.6312 3.88229 13.3596 3.92208C15.6102 3.97387 16.9443 4.42103 17.6464 5.57492C19.5937 5.55913 21.4604 6.16671 21.4104 6.25387L20.7108 6.29808C20.8414 6.27471 18.5174 6.4105 17.762 6.36882C17.4366 6.88987 16.1902 7.23597 14.5463 7.59534C15.0178 8.27555 15.2075 8.59324 15.3842 9.73955L14.4943 11.3425L14.6957 13.7059C13.8253 15.3151 12.4399 16.8676 11.0155 17.3716L10.5284 17.7631L13.5239 23.5244L26.9033 0.248185H0.140625ZM47.9432 12.2469L47.9256 1.99513L42.7685 10.6553H42.3281L37.1716 2.02987V12.2469H36.2915V0.2665H37.0482L42.5574 9.52608L48.0659 0.2665H48.8057L48.8233 12.2469H47.9432ZM61.0907 11.46V12.2469H52.5892V0.2665H60.8264V1.05408H53.4868V5.77766H60.0521V6.54755H53.4868V11.46H61.0907ZM66.7227 1.05408H62.2871V0.2665H72.0552V1.05408H67.6197V12.2469H66.7227V1.05408ZM80.9439 8.13976L77.7054 1.22524L74.4838 8.13976H80.9439ZM81.2784 8.87555H74.1324L72.5657 12.2469H71.598L77.2644 0.267132H78.162L83.8297 12.2469H82.8619L81.2771 8.87555H81.2784ZM90.8705 11.46C94.3551 11.46 96.5907 9.30313 96.5907 6.25703C96.5907 3.21029 94.3551 1.05408 90.8705 1.05408H86.963V11.46H90.8705ZM86.0653 0.2665H90.9406C94.8481 0.2665 97.4877 2.76566 97.4877 6.25703C97.4877 9.74839 94.8481 12.2469 90.9406 12.2469H86.0653V0.2665ZM107.714 8.13976L104.475 1.22524L101.254 8.13976H107.714ZM108.048 8.87555H100.902L99.3356 12.2469H98.3678L104.035 0.267132H104.933L110.6 12.2469H109.632L108.048 8.87555ZM114.578 1.05408H110.142V0.2665H119.911V1.05408H115.475V12.2469H114.578V1.05408ZM128.799 8.13976L125.561 1.22524L122.34 8.13976H128.799ZM129.134 8.87555H121.988L120.421 12.2469H119.453L125.121 0.267132H126.018L131.685 12.2469H130.718L129.134 8.87555ZM150.694 0.2665L146.541 12.2469H145.168L141.559 2.02987L137.934 12.2469H136.578L132.425 0.2665H133.762L137.317 10.5701L140.996 0.2665H142.21L145.837 10.6212L149.445 0.2665H150.694ZM163.507 6.25703C163.507 3.3985 161.307 1.29345 158.35 1.29345C155.375 1.29345 153.158 3.3985 153.158 6.25703C153.158 9.11492 155.376 11.2206 158.35 11.2206C161.307 11.2206 163.507 9.11555 163.507 6.25703ZM151.873 6.2564C151.873 2.76566 154.619 0.164185 158.35 0.164185C162.047 0.164185 164.81 2.74861 164.81 6.25703C164.81 9.76545 162.047 12.3499 158.35 12.3499C154.619 12.3499 151.873 9.74776 151.873 6.2564ZM176.074 4.37429C176.074 2.45745 174.771 1.36166 172.307 1.36166H169.033V7.36924H172.307C174.771 7.36924 176.074 6.25703 176.074 4.37429ZM176.144 12.2469L173.328 8.39618C173.011 8.43029 172.695 8.44797 172.343 8.44797H169.033V12.2469H167.731V0.2665H172.343C175.475 0.2665 177.376 1.80755 177.376 4.37429C177.376 6.25703 176.355 7.57513 174.56 8.13976L177.57 12.2469H176.144ZM184.276 6.61639L181.759 9.09787V12.2469H180.456V0.2665H181.759V7.50629L188.992 0.2665H190.489L185.156 5.69239L190.859 12.2469H189.309L184.276 6.61639Z" fill="#1B2F64"/>
<mask id="mask0" style="mask-type:alpha" maskUnits="userSpaceOnUse" x="191" y="0" width="10" height="13">
<path d="M191.527 0.164062H200.697V12.3497H191.527V0.164062Z" fill="white"/>
</mask>
<g mask="url(#mask0)">
<path fill-rule="evenodd" clip-rule="evenodd" d="M191.527 10.7923L192.037 9.81711C192.917 10.6559 194.484 11.2716 196.103 11.2716C198.409 11.2716 199.412 10.3306 199.412 9.14954C199.412 5.86343 191.826 7.88322 191.826 3.45017C191.826 1.68743 193.234 0.164062 196.367 0.164062C197.757 0.164062 199.201 0.557536 200.187 1.22512L199.747 2.23564C198.69 1.5668 197.459 1.24154 196.367 1.24154C194.114 1.24154 193.111 2.21733 193.111 3.41543C193.111 6.70154 200.697 4.71648 200.697 9.08069C200.697 10.8428 199.254 12.3491 196.103 12.3491C194.255 12.3491 192.442 11.7163 191.527 10.7916" fill="#1B2F64"/>
</g>
</svg>
