<?xml version="1.0" encoding="UTF-8" standalone="no"?>
<svg
   xmlns:dc="http://purl.org/dc/elements/1.1/"
   xmlns:cc="http://creativecommons.org/ns#"
   xmlns:rdf="http://www.w3.org/1999/02/22-rdf-syntax-ns#"
   xmlns:svg="http://www.w3.org/2000/svg"
   xmlns="http://www.w3.org/2000/svg"
   xmlns:sodipodi="http://sodipodi.sourceforge.net/DTD/sodipodi-0.dtd"
   xmlns:inkscape="http://www.inkscape.org/namespaces/inkscape"
   version="1.1"
   id="svg2"
   xml:space="preserve"
   width="893.44"
   height="140.21333"
   viewBox="0 0 893.44 140.21333"
   sodipodi:docname="CIESIN-CCS_logo.eps"><metadata
     id="metadata8"><rdf:RDF><cc:Work
         rdf:about=""><dc:format>image/svg+xml</dc:format><dc:type
           rdf:resource="http://purl.org/dc/dcmitype/StillImage" /></cc:Work></rdf:RDF></metadata><defs
     id="defs6" /><sodipodi:namedview
     pagecolor="#ffffff"
     bordercolor="#666666"
     borderopacity="1"
     objecttolerance="10"
     gridtolerance="10"
     guidetolerance="10"
     inkscape:pageopacity="0"
     inkscape:pageshadow="2"
     inkscape:window-width="640"
     inkscape:window-height="480"
     id="namedview4" /><g
     id="g10"
     inkscape:groupmode="layer"
     inkscape:label="ink_ext_XXXXXX"
     transform="matrix(1.3333333,0,0,-1.3333333,0,140.21333)"><g
       id="g12"
       transform="scale(0.1)"><path
         d="m 533.363,358.457 c -28.133,25.234 -35.097,58.305 -35.097,85.859 0,19.434 6.672,53.375 32.488,79.188 17.406,17.402 43.801,31.043 88.469,31.043 11.605,0 27.847,-0.875 42.062,-3.484 11.024,-2.032 20.309,-3.774 29.59,-4.348 3.188,-0.293 3.77,-1.453 3.77,-3.195 0,-2.321 -0.872,-5.801 -1.454,-16.247 -0.578,-9.566 -0.578,-25.519 -0.867,-29.871 -0.293,-4.355 -0.871,-6.093 -2.613,-6.093 -2.031,0 -2.316,2.031 -2.316,6.093 0,11.309 -4.645,23.203 -12.184,29.586 -10.152,8.7 -32.492,16.532 -58.016,16.532 -38.578,0 -56.566,-11.313 -66.715,-21.176 -21.179,-20.301 -26.105,-46.117 -26.105,-75.707 0,-55.403 42.637,-106.164 104.711,-106.164 21.758,0 38.875,2.609 50.477,14.504 6.085,6.378 9.863,19.144 10.73,24.363 0.582,3.195 1.16,4.351 2.898,4.351 1.454,0 2.036,-2.031 2.036,-4.351 0,-2.031 -3.485,-27.266 -6.383,-37.129 -1.742,-5.512 -2.321,-6.086 -7.543,-8.414 -11.606,-4.637 -33.649,-6.668 -52.215,-6.668 -43.512,0 -72.809,10.73 -95.723,31.328"
         style="fill:#264391;fill-opacity:1;fill-rule:nonzero;stroke:none"
         id="path14" /><path
         d="m 734.91,446.348 c 0,38.289 0,45.25 -0.578,53.082 -0.582,8.41 -2.031,12.472 -10.441,13.636 -2.032,0.289 -6.379,0.575 -8.703,0.575 -0.872,0 -2.036,1.164 -2.036,2.031 0,1.453 1.164,2.035 4.067,2.035 11.597,0 28.136,-0.582 29.59,-0.582 1.738,0 55.109,-0.289 60.91,0 4.933,0.293 9.57,1.16 11.601,1.449 1.164,0.293 2.321,1.16 3.485,1.16 0.867,0 1.16,-1.16 1.16,-2.316 0,-1.746 -1.449,-4.645 -2.031,-11.609 -0.293,-2.317 -0.868,-13.34 -1.45,-16.239 -0.293,-1.164 -1.164,-2.613 -2.32,-2.613 -1.449,0 -2.031,1.164 -2.031,3.188 0,1.746 -0.293,5.808 -1.449,8.707 -1.743,4.058 -4.352,5.8 -18.278,7.539 -4.351,0.582 -33.933,0.871 -36.836,0.871 -1.164,0 -1.457,-0.871 -1.457,-2.61 v -67.007 c 0,-1.743 0,-2.61 1.457,-2.61 3.188,0 36.836,0 42.637,0.578 6.094,0.582 9.863,0.871 12.477,3.485 1.738,1.738 2.898,3.187 3.769,3.187 0.867,0 1.449,-0.574 1.449,-2.027 0,-1.449 -1.449,-5.512 -2.031,-13.637 -0.582,-4.926 -1.156,-14.211 -1.156,-15.953 0,-2.031 -0.582,-4.637 -2.324,-4.637 -1.161,0 -1.739,0.867 -1.739,2.317 0,2.32 0,4.933 -1.164,8.121 -0.867,3.48 -3.187,6.383 -13.05,7.543 -6.961,0.871 -34.227,1.16 -38.579,1.16 -1.453,0 -1.746,-0.871 -1.746,-1.738 v -20.598 c 0,-8.414 -0.285,-37.129 0,-42.059 0.582,-16.535 5.227,-19.722 30.461,-19.722 6.668,0 18.86,0 25.528,2.605 6.671,2.903 10.152,7.254 11.601,17.117 0.582,2.899 1.16,3.774 2.613,3.774 1.45,0 1.739,-2.031 1.739,-3.774 0,-1.738 -2.032,-18.566 -3.485,-23.785 -1.734,-6.383 -4.347,-6.383 -14.211,-6.383 -19.14,0 -33.937,0.582 -44.379,0.871 -10.734,0.579 -17.406,0.579 -21.171,0.579 -0.582,0 -5.516,0 -11.028,-0.286 -4.929,-0.293 -10.73,-0.582 -14.797,-0.582 -2.605,0 -4.054,0.582 -4.054,2.032 0,0.867 0.582,2.027 2.031,2.027 2.316,0 5.508,0.875 7.832,1.16 4.926,0.871 5.508,5.801 6.668,13.055 1.449,10.152 1.449,29.586 1.449,53.371 v 43.512"
         style="fill:#264391;fill-opacity:1;fill-rule:nonzero;stroke:none"
         id="path16" /><path
         d="m 888.031,364.84 c 0.582,-20.309 2.903,-26.399 9.864,-28.141 4.64,-1.156 10.441,-1.449 12.765,-1.449 1.156,0 2.031,-0.871 2.031,-2.027 0,-1.45 -1.746,-2.032 -4.644,-2.032 -14.5,0 -24.656,0.868 -26.977,0.868 -2.32,0 -13.05,-0.868 -24.652,-0.868 -2.613,0 -4.063,0.289 -4.063,2.032 0,1.156 0.868,2.027 2.032,2.027 2.031,0 6.668,0.293 10.437,1.449 6.383,1.742 7.254,8.414 7.254,30.75 v 141.262 c 0,9.863 1.453,12.477 3.485,12.477 2.898,0 7.25,-4.934 9.859,-7.547 4.058,-4.055 41.187,-43.508 80.637,-84.121 25.242,-26.102 52.501,-55.399 60.341,-63.52 l -2.62,123.57 c -0.28,15.953 -1.73,21.465 -9.57,22.914 -4.64,0.871 -10.44,1.157 -12.47,1.157 -1.74,0 -2.033,1.453 -2.033,2.324 0,1.453 2.033,1.742 4.933,1.742 11.61,0 23.79,-0.582 26.69,-0.582 2.9,0 11.31,0.582 21.75,0.582 2.61,0 4.64,-0.289 4.64,-1.742 0,-0.871 -1.16,-2.324 -2.9,-2.324 -1.16,0 -3.19,0 -6.09,-0.575 -8.41,-1.742 -8.99,-6.675 -8.99,-21.468 l -0.58,-144.453 c 0,-16.247 -0.29,-17.696 -2.03,-17.696 -2.61,0 -5.23,2.031 -19.43,15.082 -2.62,2.324 -39.458,38.582 -66.43,66.719 -29.59,31.035 -58.305,61.207 -66.137,69.906 l 2.898,-116.316"
         style="fill:#264391;fill-opacity:1;fill-rule:nonzero;stroke:none"
         id="path18" /><path
         d="m 1162.96,402.836 c 0,-23.785 0,-43.219 1.16,-53.371 0.87,-7.254 2.03,-11.891 9.86,-13.055 3.48,-0.578 9.28,-1.16 11.61,-1.16 1.73,0 2.03,-1.16 2.03,-2.027 0,-1.164 -1.16,-2.032 -4.07,-2.032 -13.92,0 -30.16,0.868 -31.61,0.868 -1.16,0 -18.86,-0.868 -26.4,-0.868 -2.9,0 -4.06,0.582 -4.06,2.032 0,0.867 0.58,1.738 2.03,1.738 2.32,0 5.22,0.582 7.54,1.164 5.22,1.156 6.67,6.086 7.54,13.34 1.16,10.152 1.16,29.586 1.16,53.371 v 103.555 l -36.83,-0.582 c -15.96,-0.286 -22.05,-2.032 -25.82,-7.832 -2.9,-4.348 -3.19,-6.086 -4.06,-7.832 -0.58,-2.024 -1.45,-2.317 -2.62,-2.317 -0.57,0 -1.73,0.578 -1.73,2.031 0,2.61 4.93,24.657 5.51,26.684 0.29,1.449 1.74,4.645 2.61,4.645 1.74,0 4.35,-2.032 11.31,-2.903 7.25,-0.867 17.11,-1.16 20.01,-1.16 h 96.31 c 8.41,0 14.21,0.582 18.27,1.16 3.77,0.582 6.09,1.156 7.26,1.156 1.15,0 1.15,-1.449 1.15,-2.898 0,-7.539 -0.87,-25.234 -0.87,-28.137 0,-2.027 -1.15,-3.191 -2.32,-3.191 -1.16,0 -1.73,0.875 -2.03,4.355 l -0.28,2.606 c -0.87,7.547 -6.39,13.058 -30.75,13.633 l -31.91,0.582 V 402.836"
         style="fill:#264391;fill-opacity:1;fill-rule:nonzero;stroke:none"
         id="path20" /><path
         d="m 1272.56,446.348 c 0,38.289 0,45.25 -0.58,53.082 -0.58,8.41 -2.03,12.472 -10.44,13.636 -2.03,0.289 -6.38,0.575 -8.7,0.575 -0.87,0 -2.03,1.164 -2.03,2.031 0,1.453 1.16,2.035 4.06,2.035 11.6,0 28.14,-0.582 29.59,-0.582 1.74,0 55.11,-0.289 60.91,0 4.93,0.293 9.57,1.16 11.6,1.449 1.16,0.293 2.32,1.16 3.48,1.16 0.87,0 1.17,-1.16 1.17,-2.316 0,-1.746 -1.45,-4.645 -2.03,-11.609 -0.3,-2.317 -0.87,-13.34 -1.46,-16.239 -0.29,-1.164 -1.16,-2.613 -2.31,-2.613 -1.45,0 -2.04,1.164 -2.04,3.188 0,1.746 -0.29,5.808 -1.45,8.707 -1.74,4.058 -4.35,5.8 -18.27,7.539 -4.35,0.582 -33.94,0.871 -36.84,0.871 -1.16,0 -1.45,-0.871 -1.45,-2.61 v -67.007 c 0,-1.743 0,-2.61 1.45,-2.61 3.19,0 36.84,0 42.64,0.578 6.09,0.582 9.86,0.871 12.47,3.485 1.74,1.738 2.9,3.187 3.77,3.187 0.87,0 1.45,-0.574 1.45,-2.027 0,-1.449 -1.45,-5.512 -2.03,-13.637 -0.58,-4.926 -1.15,-14.211 -1.15,-15.953 0,-2.031 -0.59,-4.637 -2.33,-4.637 -1.16,0 -1.74,0.867 -1.74,2.317 0,2.32 0,4.933 -1.16,8.121 -0.87,3.48 -3.19,6.383 -13.05,7.543 -6.96,0.871 -34.23,1.16 -38.58,1.16 -1.45,0 -1.74,-0.871 -1.74,-1.738 v -20.598 c 0,-8.414 -0.29,-37.129 0,-42.059 0.58,-16.535 5.22,-19.722 30.46,-19.722 6.67,0 18.85,0 25.52,2.605 6.67,2.903 10.15,7.254 11.6,17.117 0.59,2.899 1.17,3.774 2.62,3.774 1.45,0 1.74,-2.031 1.74,-3.774 0,-1.738 -2.04,-18.566 -3.49,-23.785 -1.73,-6.383 -4.35,-6.383 -14.21,-6.383 -19.14,0 -33.94,0.582 -44.38,0.871 -10.73,0.579 -17.4,0.579 -21.17,0.579 -0.58,0 -5.51,0 -11.03,-0.286 -4.93,-0.293 -10.73,-0.582 -14.79,-0.582 -2.61,0 -4.06,0.582 -4.06,2.032 0,0.867 0.58,2.027 2.03,2.027 2.32,0 5.51,0.875 7.83,1.16 4.94,0.871 5.51,5.801 6.67,13.055 1.45,10.152 1.45,29.586 1.45,53.371 v 43.512"
         style="fill:#264391;fill-opacity:1;fill-rule:nonzero;stroke:none"
         id="path22" /><path
         d="m 1442.8,425.465 c 0,-1.453 0.58,-2.32 1.74,-3.195 3.77,-2.028 16.82,-3.77 28.14,-3.77 6.08,0 13.05,0.289 19.14,4.352 8.7,5.8 15.37,18.859 15.37,37.711 0,30.746 -16.82,48.441 -44.09,48.441 -7.54,0 -15.66,-0.871 -18.27,-1.449 -1.16,-0.582 -2.03,-1.453 -2.03,-2.903 z m -22.05,20.883 c 0,38.289 0,45.25 -0.58,53.082 -0.58,8.41 -2.03,12.472 -10.44,13.636 -2.03,0.289 -6.38,0.575 -8.7,0.575 -0.87,0 -2.04,1.164 -2.04,2.031 0,1.453 1.17,2.035 4.07,2.035 11.6,0 28.71,-0.582 30.16,-0.582 2.62,0 24.08,0.582 31.91,0.582 16.25,0 34.23,-1.453 47.58,-10.734 6.38,-4.645 17.69,-16.535 17.69,-33.649 0,-18.277 -7.54,-35.972 -31.33,-56.273 20.89,-26.11 38.58,-48.442 53.37,-63.813 13.63,-13.925 22.05,-16.246 28.43,-17.113 4.93,-0.875 7.54,-0.875 8.99,-0.875 1.45,0 2.32,-1.16 2.32,-2.027 0,-1.45 -1.45,-2.032 -6.09,-2.032 h -15.95 c -14.51,0 -20.89,1.45 -27.27,4.934 -11.02,5.797 -20.3,17.688 -34.81,36.254 -10.73,13.344 -22.04,29.301 -27.55,35.969 -1.16,1.16 -1.75,1.453 -3.48,1.453 l -32.49,0.578 c -1.16,0 -1.74,-0.578 -1.74,-2.031 v -5.801 c 0,-23.789 0,-42.93 1.16,-53.082 0.87,-7.254 2.32,-11.891 10.15,-13.055 3.48,-0.578 8.99,-1.16 11.31,-1.16 1.74,0 2.03,-1.16 2.03,-2.027 0,-1.164 -1.16,-2.032 -4.06,-2.032 -13.92,0 -30.17,0.868 -31.32,0.868 -0.3,0 -17.41,-0.868 -25.24,-0.868 -2.61,0 -4.06,0.582 -4.06,2.032 0,0.867 0.58,2.027 2.03,2.027 2.32,0 5.51,0.582 7.83,1.16 4.93,1.164 5.51,5.801 6.67,13.055 1.45,10.152 1.45,29.586 1.45,53.371 v 43.512"
         style="fill:#264391;fill-opacity:1;fill-rule:nonzero;stroke:none"
         id="path24" /><path
         d="m 1686.68,446.348 c 0,38.289 0,45.25 -0.58,53.082 -0.58,8.41 -2.03,12.472 -10.44,13.636 -2.03,0.289 -6.38,0.575 -8.71,0.575 -0.87,0 -2.03,1.164 -2.03,2.031 0,1.453 1.16,2.035 4.06,2.035 11.61,0 27.56,-0.582 29.01,-0.582 4.93,0 60.34,-0.289 66.14,0 4.93,0.293 9.28,0.293 11.6,1.16 1.45,0.289 2.61,1.449 3.48,1.449 1.16,0 1.74,-1.16 1.74,-2.316 0,-1.746 -1.16,-4.645 -2.03,-11.609 -0.29,-2.317 -0.58,-13.34 -1.16,-16.239 -0.29,-1.164 -1.16,-2.613 -2.32,-2.613 -1.16,0 -2.03,1.164 -2.03,2.902 0,2.032 -0.87,6.094 -2.32,9.282 -1.45,3.187 -7.54,7.25 -17.4,7.25 l -41.78,0.582 c -1.45,0 -2.03,-0.582 -2.03,-2.614 v -67.293 c 0,-1.453 0,-2.32 1.75,-2.32 l 34.81,0.289 c 4.35,0 8.12,0 11.6,0.293 6.09,0.574 9.57,1.449 11.89,4.348 1.16,1.453 2.32,2.609 3.19,2.609 1.16,0 1.45,-0.867 1.45,-2.027 0,-1.449 -1.74,-5.512 -2.32,-13.637 -0.58,-4.926 -0.87,-14.789 -0.87,-16.531 0,-2.32 -0.58,-4.934 -2.32,-4.934 -1.45,0 -1.74,1.16 -1.74,2.324 -0.29,2.61 -0.58,6.09 -1.74,8.989 -1.16,3.48 -5.22,6.676 -13.06,7.832 -6.38,0.871 -36.54,0.582 -40.89,0.582 -1.45,0 -1.75,-0.582 -1.75,-2.32 v -19.727 c 0,-24.363 0,-43.797 1.17,-53.371 0.86,-7.254 2.31,-11.891 9.28,-13.055 3.77,-0.578 9.28,-1.16 11.6,-1.16 1.45,0 2.03,-1.16 2.03,-2.027 0,-1.164 -1.16,-2.032 -4.06,-2.032 -14.21,0 -30.75,0.868 -31.91,0.868 -1.45,0 -17.4,-0.868 -25.24,-0.868 -2.6,0 -4.05,0.582 -4.05,2.032 0,0.867 0.58,2.027 2.03,2.027 2.32,0 5.51,0.875 7.83,1.16 4.93,0.871 5.51,5.801 6.67,13.055 1.45,10.152 1.45,29.586 1.45,53.371 v 43.512"
         style="fill:#264391;fill-opacity:1;fill-rule:nonzero;stroke:none"
         id="path26" /><path
         d="m 1914.05,338.152 c 22.92,0 69.04,12.184 69.04,83.543 0,59.168 -35.97,90.207 -76.29,90.207 -42.64,0 -73.39,-26.687 -73.39,-80.351 0,-57.43 34.52,-93.399 80.64,-93.399 z m -5.8,183.036 c 57.44,0 100.95,-35.098 100.95,-92.536 0,-55.113 -40.9,-100.652 -102.4,-100.652 -69.91,0 -99.78,52.504 -99.78,96.883 0,39.742 30.74,96.305 101.23,96.305"
         style="fill:#264391;fill-opacity:1;fill-rule:nonzero;stroke:none"
         id="path28" /><path
         d="m 2072.96,425.465 c 0,-1.453 0.59,-2.32 1.74,-3.195 3.78,-2.028 16.83,-3.77 28.14,-3.77 6.09,0 13.05,0.289 19.14,4.352 8.71,5.8 15.38,18.859 15.38,37.711 0,30.746 -16.83,48.441 -44.09,48.441 -7.54,0 -15.67,-0.871 -18.27,-1.449 -1.17,-0.582 -2.04,-1.453 -2.04,-2.903 z m -22.04,20.883 c 0,38.289 0,45.25 -0.58,53.082 -0.58,8.41 -2.03,12.472 -10.44,13.636 -2.03,0.289 -6.38,0.575 -8.71,0.575 -0.87,0 -2.03,1.164 -2.03,2.031 0,1.453 1.16,2.035 4.06,2.035 11.6,0 28.72,-0.582 30.17,-0.582 2.61,0 24.08,0.582 31.91,0.582 16.24,0 34.23,-1.453 47.57,-10.734 6.38,-4.645 17.7,-16.535 17.7,-33.649 0,-18.277 -7.55,-35.972 -31.33,-56.273 20.88,-26.11 38.58,-48.442 53.37,-63.813 13.63,-13.925 22.04,-16.246 28.43,-17.113 4.93,-0.875 7.54,-0.875 8.99,-0.875 1.45,0 2.32,-1.16 2.32,-2.027 0,-1.45 -1.45,-2.032 -6.09,-2.032 h -15.96 c -14.5,0 -20.88,1.45 -27.26,4.934 -11.02,5.797 -20.31,17.688 -34.81,36.254 -10.73,13.344 -22.05,29.301 -27.56,35.969 -1.16,1.16 -1.74,1.453 -3.48,1.453 l -32.49,0.578 c -1.15,0 -1.74,-0.578 -1.74,-2.031 v -5.801 c 0,-23.789 0,-42.93 1.16,-53.082 0.88,-7.254 2.33,-11.891 10.16,-13.055 3.48,-0.578 8.99,-1.16 11.31,-1.16 1.74,0 2.03,-1.16 2.03,-2.027 0,-1.164 -1.16,-2.032 -4.06,-2.032 -13.93,0 -30.17,0.868 -31.33,0.868 -0.29,0 -17.41,-0.868 -25.24,-0.868 -2.61,0 -4.06,0.582 -4.06,2.032 0,0.867 0.59,2.027 2.04,2.027 2.32,0 5.5,0.582 7.83,1.16 4.92,1.164 5.51,5.801 6.67,13.055 1.45,10.152 1.45,29.586 1.45,53.371 v 43.512"
         style="fill:#264391;fill-opacity:1;fill-rule:nonzero;stroke:none"
         id="path30" /><path
         d="m 2347.88,415.313 c 0,-27.848 0,-50.762 1.45,-62.95 0.88,-8.406 2.61,-14.789 11.31,-15.953 4.07,-0.578 10.45,-1.16 13.06,-1.16 1.74,0 2.32,-0.871 2.32,-1.738 0,-1.453 -1.45,-2.321 -4.64,-2.321 -15.96,0 -34.23,0.868 -35.68,0.868 -1.45,0 -19.72,-0.868 -28.42,-0.868 -3.2,0 -4.65,0.582 -4.65,2.321 0,0.867 0.58,1.738 2.32,1.738 2.61,0 6.1,0.582 8.7,1.16 5.81,1.164 7.26,7.547 8.42,15.953 1.45,12.188 1.45,35.102 1.45,62.95 v 51.05 c 0,45.246 0,53.371 -0.58,62.657 -0.58,9.863 -3.48,14.793 -9.86,16.242 -3.2,0.871 -6.97,1.16 -9,1.16 -1.16,0 -2.32,0.582 -2.32,1.742 0,1.738 1.45,2.32 4.64,2.32 9.58,0 27.85,-0.871 29.3,-0.871 1.45,0 19.72,0.871 28.43,0.871 3.19,0 4.64,-0.582 4.64,-2.32 0,-1.16 -1.16,-1.742 -2.32,-1.742 -2.03,0 -3.77,-0.289 -7.26,-0.871 -7.83,-1.449 -10.15,-6.379 -10.73,-16.531 -0.58,-9.286 -0.58,-17.411 -0.58,-62.657 v -51.05"
         style="fill:#264391;fill-opacity:1;fill-rule:nonzero;stroke:none"
         id="path32" /><path
         d="m 2420.38,364.84 c 0.58,-20.309 2.9,-26.399 9.86,-28.141 4.64,-1.156 10.44,-1.449 12.76,-1.449 1.16,0 2.03,-0.871 2.03,-2.027 0,-1.45 -1.74,-2.032 -4.64,-2.032 -14.5,0 -24.66,0.868 -26.98,0.868 -2.32,0 -13.05,-0.868 -24.65,-0.868 -2.61,0 -4.06,0.289 -4.06,2.032 0,1.156 0.87,2.027 2.03,2.027 2.03,0 6.67,0.293 10.44,1.449 6.38,1.742 7.25,8.414 7.25,30.75 v 141.262 c 0,9.863 1.45,12.477 3.49,12.477 2.9,0 7.25,-4.934 9.85,-7.547 4.07,-4.055 41.2,-43.508 80.64,-84.121 25.24,-26.102 52.51,-55.399 60.34,-63.52 l -2.61,123.57 c -0.29,15.953 -1.74,21.465 -9.57,22.914 -4.65,0.871 -10.45,1.157 -12.48,1.157 -1.74,0 -2.03,1.453 -2.03,2.324 0,1.453 2.03,1.742 4.93,1.742 11.61,0 23.79,-0.582 26.69,-0.582 2.9,0 11.32,0.582 21.75,0.582 2.62,0 4.65,-0.289 4.65,-1.742 0,-0.871 -1.16,-2.324 -2.9,-2.324 -1.16,0 -3.2,0 -6.1,-0.575 -8.41,-1.742 -8.99,-6.675 -8.99,-21.468 l -0.58,-144.453 c 0,-16.247 -0.29,-17.696 -2.03,-17.696 -2.61,0 -5.22,2.031 -19.43,15.082 -2.61,2.324 -39.45,38.582 -66.43,66.719 -29.59,31.035 -58.3,61.207 -66.13,69.906 l 2.9,-116.316"
         style="fill:#264391;fill-opacity:1;fill-rule:nonzero;stroke:none"
         id="path34" /><path
         d="m 2695.3,402.836 c 0,-23.785 0,-43.219 1.16,-53.371 0.87,-7.254 2.03,-11.891 9.86,-13.055 3.48,-0.578 9.29,-1.16 11.61,-1.16 1.74,0 2.03,-1.16 2.03,-2.027 0,-1.164 -1.16,-2.032 -4.06,-2.032 -13.93,0 -30.17,0.868 -31.62,0.868 -1.16,0 -18.86,-0.868 -26.39,-0.868 -2.91,0 -4.07,0.582 -4.07,2.032 0,0.867 0.58,1.738 2.03,1.738 2.32,0 5.22,0.582 7.54,1.164 5.23,1.156 6.68,6.086 7.55,13.34 1.15,10.152 1.15,29.586 1.15,53.371 v 103.555 l -36.83,-0.582 c -15.95,-0.286 -22.05,-2.032 -25.82,-7.832 -2.9,-4.348 -3.19,-6.086 -4.06,-7.832 -0.58,-2.024 -1.45,-2.317 -2.61,-2.317 -0.58,0 -1.74,0.578 -1.74,2.031 0,2.61 4.93,24.657 5.51,26.684 0.29,1.449 1.74,4.645 2.61,4.645 1.74,0 4.35,-2.032 11.31,-2.903 7.25,-0.867 17.12,-1.16 20.02,-1.16 h 96.3 c 8.42,0 14.22,0.582 18.28,1.16 3.77,0.582 6.09,1.156 7.25,1.156 1.16,0 1.16,-1.449 1.16,-2.898 0,-7.539 -0.87,-25.234 -0.87,-28.137 0,-2.027 -1.16,-3.191 -2.32,-3.191 -1.16,0 -1.74,0.875 -2.03,4.355 l -0.29,2.606 c -0.87,7.547 -6.38,13.058 -30.75,13.633 l -31.91,0.582 V 402.836"
         style="fill:#264391;fill-opacity:1;fill-rule:nonzero;stroke:none"
         id="path36" /><path
         d="m 2804.91,446.348 c 0,38.289 0,45.25 -0.58,53.082 -0.58,8.41 -2.04,12.472 -10.44,13.636 -2.03,0.289 -6.39,0.575 -8.71,0.575 -0.87,0 -2.03,1.164 -2.03,2.031 0,1.453 1.16,2.035 4.06,2.035 11.6,0 28.14,-0.582 29.59,-0.582 1.74,0 55.11,-0.289 60.91,0 4.94,0.293 9.58,1.16 11.61,1.449 1.16,0.293 2.32,1.16 3.48,1.16 0.87,0 1.16,-1.16 1.16,-2.316 0,-1.746 -1.45,-4.645 -2.03,-11.609 -0.29,-2.317 -0.87,-13.34 -1.45,-16.239 -0.29,-1.164 -1.16,-2.613 -2.32,-2.613 -1.45,0 -2.03,1.164 -2.03,3.188 0,1.746 -0.3,5.808 -1.45,8.707 -1.75,4.058 -4.35,5.8 -18.28,7.539 -4.35,0.582 -33.93,0.871 -36.84,0.871 -1.16,0 -1.45,-0.871 -1.45,-2.61 v -67.007 c 0,-1.743 0,-2.61 1.45,-2.61 3.19,0 36.84,0 42.64,0.578 6.1,0.582 9.87,0.871 12.48,3.485 1.74,1.738 2.9,3.187 3.77,3.187 0.87,0 1.45,-0.574 1.45,-2.027 0,-1.449 -1.45,-5.512 -2.03,-13.637 -0.58,-4.926 -1.16,-14.211 -1.16,-15.953 0,-2.031 -0.58,-4.637 -2.33,-4.637 -1.15,0 -1.73,0.867 -1.73,2.317 0,2.32 0,4.933 -1.17,8.121 -0.86,3.48 -3.18,6.383 -13.05,7.543 -6.96,0.871 -34.23,1.16 -38.58,1.16 -1.45,0 -1.74,-0.871 -1.74,-1.738 v -20.598 c 0,-8.414 -0.29,-37.129 0,-42.059 0.58,-16.535 5.22,-19.722 30.46,-19.722 6.67,0 18.86,0 25.53,2.605 6.67,2.903 10.15,7.254 11.6,17.117 0.58,2.899 1.16,3.774 2.61,3.774 1.45,0 1.74,-2.031 1.74,-3.774 0,-1.738 -2.03,-18.566 -3.48,-23.785 -1.74,-6.383 -4.35,-6.383 -14.22,-6.383 -19.14,0 -33.93,0.582 -44.38,0.871 -10.73,0.579 -17.4,0.579 -21.17,0.579 -0.58,0 -5.51,0 -11.02,-0.286 -4.94,-0.293 -10.74,-0.582 -14.8,-0.582 -2.61,0 -4.06,0.582 -4.06,2.032 0,0.867 0.58,2.027 2.04,2.027 2.31,0 5.5,0.875 7.83,1.16 4.93,0.871 5.5,5.801 6.67,13.055 1.45,10.152 1.45,29.586 1.45,53.371 v 43.512"
         style="fill:#264391;fill-opacity:1;fill-rule:nonzero;stroke:none"
         id="path38" /><path
         d="m 2975.14,425.465 c 0,-1.453 0.58,-2.32 1.74,-3.195 3.77,-2.028 16.83,-3.77 28.14,-3.77 6.09,0 13.05,0.289 19.14,4.352 8.71,5.8 15.38,18.859 15.38,37.711 0,30.746 -16.83,48.441 -44.1,48.441 -7.53,0 -15.66,-0.871 -18.27,-1.449 -1.16,-0.582 -2.03,-1.453 -2.03,-2.903 z m -22.04,20.883 c 0,38.289 0,45.25 -0.59,53.082 -0.58,8.41 -2.03,12.472 -10.43,13.636 -2.04,0.289 -6.39,0.575 -8.71,0.575 -0.87,0 -2.03,1.164 -2.03,2.031 0,1.453 1.16,2.035 4.06,2.035 11.6,0 28.72,-0.582 30.17,-0.582 2.61,0 24.07,0.582 31.91,0.582 16.24,0 34.22,-1.453 47.57,-10.734 6.38,-4.645 17.69,-16.535 17.69,-33.649 0,-18.277 -7.54,-35.972 -31.32,-56.273 20.88,-26.11 38.57,-48.442 53.37,-63.813 13.63,-13.925 22.05,-16.246 28.42,-17.113 4.93,-0.875 7.54,-0.875 9,-0.875 1.44,0 2.32,-1.16 2.32,-2.027 0,-1.45 -1.45,-2.032 -6.09,-2.032 h -15.96 c -14.5,0 -20.89,1.45 -27.27,4.934 -11.02,5.797 -20.3,17.688 -34.8,36.254 -10.74,13.344 -22.05,29.301 -27.56,35.969 -1.16,1.16 -1.74,1.453 -3.48,1.453 l -32.49,0.578 c -1.16,0 -1.74,-0.578 -1.74,-2.031 v -5.801 c 0,-23.789 0,-42.93 1.16,-53.082 0.87,-7.254 2.32,-11.891 10.16,-13.055 3.48,-0.578 8.98,-1.16 11.31,-1.16 1.74,0 2.02,-1.16 2.02,-2.027 0,-1.164 -1.15,-2.032 -4.05,-2.032 -13.93,0 -30.17,0.868 -31.33,0.868 -0.29,0 -17.41,-0.868 -25.24,-0.868 -2.61,0 -4.06,0.582 -4.06,2.032 0,0.867 0.58,2.027 2.03,2.027 2.32,0 5.51,0.582 7.84,1.16 4.92,1.164 5.5,5.801 6.67,13.055 1.45,10.152 1.45,29.586 1.45,53.371 v 43.512"
         style="fill:#264391;fill-opacity:1;fill-rule:nonzero;stroke:none"
         id="path40" /><path
         d="m 3147.11,364.84 c 0.58,-20.309 2.9,-26.399 9.86,-28.141 4.64,-1.156 10.44,-1.449 12.77,-1.449 1.16,0 2.03,-0.871 2.03,-2.027 0,-1.45 -1.74,-2.032 -4.64,-2.032 -14.51,0 -24.66,0.868 -26.98,0.868 -2.32,0 -13.06,-0.868 -24.66,-0.868 -2.61,0 -4.05,0.289 -4.05,2.032 0,1.156 0.86,2.027 2.02,2.027 2.03,0 6.68,0.293 10.45,1.449 6.37,1.742 7.24,8.414 7.24,30.75 v 141.262 c 0,9.863 1.46,12.477 3.49,12.477 2.9,0 7.24,-4.934 9.86,-7.547 4.06,-4.055 41.19,-43.508 80.64,-84.121 25.23,-26.102 52.5,-55.399 60.33,-63.52 l -2.61,123.57 c -0.29,15.953 -1.74,21.465 -9.57,22.914 -4.64,0.871 -10.44,1.157 -12.47,1.157 -1.75,0 -2.03,1.453 -2.03,2.324 0,1.453 2.03,1.742 4.93,1.742 11.6,0 23.78,-0.582 26.68,-0.582 2.9,0 11.32,0.582 21.76,0.582 2.61,0 4.64,-0.289 4.64,-1.742 0,-0.871 -1.16,-2.324 -2.9,-2.324 -1.17,0 -3.19,0 -6.09,-0.575 -8.42,-1.742 -8.99,-6.675 -8.99,-21.468 l -0.59,-144.453 c 0,-16.247 -0.28,-17.696 -2.03,-17.696 -2.61,0 -5.21,2.031 -19.43,15.082 -2.61,2.324 -39.45,38.582 -66.43,66.719 -29.58,31.035 -58.3,61.207 -66.13,69.906 l 2.9,-116.316"
         style="fill:#264391;fill-opacity:1;fill-rule:nonzero;stroke:none"
         id="path42" /><path
         d="m 3433.63,410.09 c 1.16,0 1.16,0.578 0.87,1.742 l -25.23,67.582 c -1.45,3.774 -2.9,3.774 -4.35,0 l -23.79,-67.582 c -0.29,-1.164 0,-1.742 0.87,-1.742 z m -28.42,102.683 c 3.19,8.122 4.35,9.571 6.09,9.571 2.61,0 3.48,-3.477 6.09,-8.989 4.64,-10.445 45.53,-112.257 61.2,-149.679 9.29,-22.047 16.24,-25.235 21.76,-26.977 3.77,-1.156 7.54,-1.449 10.14,-1.449 1.46,0 3.2,-0.578 3.2,-2.027 0,-1.45 -2.9,-2.032 -5.8,-2.032 -3.77,0 -22.63,0 -40.33,0.582 -4.93,0.286 -8.98,0.286 -8.98,1.739 0,1.16 0.58,1.16 1.74,1.738 1.44,0.582 4.06,2.609 2.31,6.672 l -22.91,56.562 c -0.58,1.164 -0.87,1.454 -2.32,1.454 h -58.87 c -1.17,0 -2.04,-0.583 -2.62,-2.032 l -14.5,-39.449 c -2.33,-6.094 -3.77,-12.184 -3.77,-16.535 0,-4.93 4.34,-6.672 8.7,-6.672 h 2.32 c 2.03,0 2.61,-0.871 2.61,-2.027 0,-1.45 -1.46,-2.032 -3.77,-2.032 -6.09,0 -20.02,0.868 -22.92,0.868 -2.61,0 -15.37,-0.868 -25.81,-0.868 -3.19,0 -4.93,0.582 -4.93,2.032 0,1.156 1.16,2.027 2.31,2.027 1.75,0 5.52,0.293 7.55,0.582 11.6,1.449 16.53,10.152 21.47,22.625 l 60.04,154.316"
         style="fill:#264391;fill-opacity:1;fill-rule:nonzero;stroke:none"
         id="path44" /><path
         d="m 3572.83,402.836 c 0,-23.785 0,-43.219 1.16,-53.371 0.87,-7.254 2.03,-11.891 9.86,-13.055 3.48,-0.578 9.28,-1.16 11.6,-1.16 1.74,0 2.04,-1.16 2.04,-2.027 0,-1.164 -1.17,-2.032 -4.07,-2.032 -13.92,0 -30.16,0.868 -31.62,0.868 -1.16,0 -18.85,-0.868 -26.39,-0.868 -2.91,0 -4.07,0.582 -4.07,2.032 0,0.867 0.59,1.738 2.03,1.738 2.33,0 5.23,0.582 7.55,1.164 5.22,1.156 6.67,6.086 7.54,13.34 1.16,10.152 1.16,29.586 1.16,53.371 v 103.555 l -36.84,-0.582 c -15.95,-0.286 -22.04,-2.032 -25.81,-7.832 -2.9,-4.348 -3.2,-6.086 -4.06,-7.832 -0.58,-2.024 -1.45,-2.317 -2.61,-2.317 -0.59,0 -1.75,0.578 -1.75,2.031 0,2.61 4.93,24.657 5.52,26.684 0.29,1.449 1.74,4.645 2.6,4.645 1.74,0 4.36,-2.032 11.32,-2.903 7.25,-0.867 17.11,-1.16 20.01,-1.16 h 96.31 c 8.41,0 14.21,0.582 18.27,1.16 3.77,0.582 6.1,1.156 7.25,1.156 1.16,0 1.16,-1.449 1.16,-2.898 0,-7.539 -0.87,-25.234 -0.87,-28.137 0,-2.027 -1.16,-3.191 -2.32,-3.191 -1.15,0 -1.74,0.875 -2.02,4.355 l -0.3,2.606 c -0.87,7.547 -6.38,13.058 -30.75,13.633 l -31.9,0.582 V 402.836"
         style="fill:#264391;fill-opacity:1;fill-rule:nonzero;stroke:none"
         id="path46" /><path
         d="m 3705.64,402.836 c 0,-23.785 0,-43.219 1.16,-53.371 0.87,-7.254 1.74,-11.891 9.29,-13.055 3.77,-0.578 9.28,-1.16 11.6,-1.16 1.45,0 2.03,-1.16 2.03,-2.027 0,-1.164 -1.16,-2.032 -4.06,-2.032 -14.22,0 -30.75,0.868 -31.91,0.868 -1.45,0 -17.41,-0.868 -25.24,-0.868 -2.61,0 -4.06,0.582 -4.06,2.032 0,0.867 0.58,2.027 2.03,2.027 2.32,0 5.52,0.582 7.83,1.16 4.93,1.164 5.8,5.801 6.67,13.055 1.16,10.152 1.46,29.586 1.46,53.371 v 43.512 c 0,38.289 0,45.25 -0.58,53.082 -0.59,8.41 -2.62,12.179 -8.12,13.343 -2.91,0.582 -6.1,0.868 -7.84,0.868 -1.16,0 -2.03,1.164 -2.03,2.031 0,1.453 1.16,2.035 4.06,2.035 8.41,0 24.37,-0.582 25.82,-0.582 1.16,0 17.69,0.582 25.52,0.582 2.9,0 4.06,-0.582 4.06,-2.035 0,-0.867 -1.16,-2.031 -2.03,-2.031 -1.73,0 -3.47,0 -6.37,-0.575 -6.97,-1.457 -8.42,-4.933 -9,-13.636 -0.29,-7.832 -0.29,-14.793 -0.29,-53.082 v -43.512"
         style="fill:#264391;fill-opacity:1;fill-rule:nonzero;stroke:none"
         id="path48" /><path
         d="m 3857.61,338.152 c 22.92,0 69.04,12.184 69.04,83.543 0,59.168 -35.97,90.207 -76.28,90.207 -42.65,0 -73.39,-26.687 -73.39,-80.351 0,-57.43 34.51,-93.399 80.63,-93.399 z m -5.8,183.036 c 57.43,0 100.95,-35.098 100.95,-92.536 0,-55.113 -40.9,-100.652 -102.39,-100.652 -69.92,0 -99.79,52.504 -99.79,96.883 0,39.742 30.74,96.305 101.23,96.305"
         style="fill:#264391;fill-opacity:1;fill-rule:nonzero;stroke:none"
         id="path50" /><path
         d="m 4005.21,364.84 c 0.58,-20.309 2.9,-26.399 9.86,-28.141 4.64,-1.156 10.44,-1.449 12.77,-1.449 1.16,0 2.03,-0.871 2.03,-2.027 0,-1.45 -1.74,-2.032 -4.64,-2.032 -14.51,0 -24.66,0.868 -26.98,0.868 -2.32,0 -13.06,-0.868 -24.66,-0.868 -2.61,0 -4.05,0.289 -4.05,2.032 0,1.156 0.87,2.027 2.02,2.027 2.03,0 6.68,0.293 10.45,1.449 6.37,1.742 7.24,8.414 7.24,30.75 v 141.262 c 0,9.863 1.46,12.477 3.49,12.477 2.9,0 7.25,-4.934 9.86,-7.547 4.07,-4.055 41.19,-43.508 80.64,-84.121 25.23,-26.102 52.5,-55.399 60.33,-63.52 l -2.61,123.57 c -0.29,15.953 -1.74,21.465 -9.57,22.914 -4.64,0.871 -10.44,1.157 -12.47,1.157 -1.75,0 -2.03,1.453 -2.03,2.324 0,1.453 2.03,1.742 4.93,1.742 11.6,0 23.78,-0.582 26.68,-0.582 2.9,0 11.32,0.582 21.76,0.582 2.61,0 4.64,-0.289 4.64,-1.742 0,-0.871 -1.15,-2.324 -2.9,-2.324 -1.17,0 -3.19,0 -6.09,-0.575 -8.41,-1.742 -8.99,-6.675 -8.99,-21.468 l -0.59,-144.453 c 0,-16.247 -0.28,-17.696 -2.03,-17.696 -2.61,0 -5.21,2.031 -19.43,15.082 -2.61,2.324 -39.45,38.582 -66.43,66.719 -29.58,31.035 -58.3,61.207 -66.13,69.906 l 2.9,-116.316"
         style="fill:#264391;fill-opacity:1;fill-rule:nonzero;stroke:none"
         id="path52" /><path
         d="m 4291.73,410.09 c 1.17,0 1.17,0.578 0.87,1.742 l -25.23,67.582 c -1.45,3.774 -2.9,3.774 -4.35,0 l -23.79,-67.582 c -0.29,-1.164 0,-1.742 0.87,-1.742 z m -28.42,102.683 c 3.19,8.122 4.35,9.571 6.09,9.571 2.61,0 3.48,-3.477 6.09,-8.989 4.64,-10.445 45.54,-112.257 61.2,-149.679 9.29,-22.047 16.24,-25.235 21.76,-26.977 3.77,-1.156 7.54,-1.449 10.15,-1.449 1.45,0 3.19,-0.578 3.19,-2.027 0,-1.45 -2.9,-2.032 -5.8,-2.032 -3.77,0 -22.63,0 -40.32,0.582 -4.93,0.286 -8.99,0.286 -8.99,1.739 0,1.16 0.58,1.16 1.74,1.738 1.45,0.582 4.07,2.609 2.32,6.672 l -22.91,56.562 c -0.59,1.164 -0.87,1.454 -2.33,1.454 h -58.87 c -1.17,0 -2.04,-0.583 -2.62,-2.032 l -14.5,-39.449 c -2.33,-6.094 -3.77,-12.184 -3.77,-16.535 0,-4.93 4.34,-6.672 8.7,-6.672 h 2.32 c 2.03,0 2.61,-0.871 2.61,-2.027 0,-1.45 -1.45,-2.032 -3.77,-2.032 -6.09,0 -20.02,0.868 -22.92,0.868 -2.61,0 -15.37,-0.868 -25.81,-0.868 -3.19,0 -4.93,0.582 -4.93,2.032 0,1.156 1.16,2.027 2.31,2.027 1.75,0 5.52,0.293 7.55,0.582 11.6,1.449 16.53,10.152 21.47,22.625 l 60.04,154.316"
         style="fill:#264391;fill-opacity:1;fill-rule:nonzero;stroke:none"
         id="path54" /><path
         d="m 4417.01,402.254 c 0,-36.254 0.58,-51.047 5.22,-55.399 4.06,-4.062 13.93,-5.8 33.94,-5.8 13.34,0 24.66,0.289 30.75,7.539 3.18,3.769 5.21,8.996 6.08,13.926 0.3,1.738 1.17,3.187 2.62,3.187 1.16,0 1.74,-1.156 1.74,-3.769 0,-2.614 -1.74,-17.407 -3.77,-24.657 -1.74,-5.801 -2.61,-6.672 -16.25,-6.672 -18.27,0 -32.48,0.289 -44.38,0.871 -11.6,0.293 -20.3,0.579 -27.85,0.579 -1.15,0 -5.51,0 -10.44,-0.286 -5.22,-0.293 -10.73,-0.582 -14.79,-0.582 -2.61,0 -4.06,0.582 -4.06,2.032 0,0.867 0.58,2.027 2.03,2.027 2.32,0 5.51,0.582 7.83,1.16 4.93,1.164 5.52,5.801 6.67,13.055 1.45,10.152 1.45,29.586 1.45,53.371 v 43.512 c 0,38.289 0,45.25 -0.57,53.082 -0.59,8.41 -2.03,12.472 -10.45,13.636 -2.03,0.289 -6.38,0.575 -8.7,0.575 -0.87,0 -2.03,1.164 -2.03,2.031 0,1.453 1.16,2.035 4.06,2.035 11.6,0 27.56,-0.582 29,-0.582 1.16,0 20.31,0.582 28.15,0.582 2.6,0 4.05,-0.582 4.05,-2.035 0,-0.867 -1.15,-1.738 -2.02,-1.738 -1.75,0 -5.52,-0.293 -8.42,-0.579 -7.54,-1.453 -8.99,-5.222 -9.57,-13.925 -0.29,-7.832 -0.29,-14.793 -0.29,-53.082 v -44.094"
         style="fill:#264391;fill-opacity:1;fill-rule:nonzero;stroke:none"
         id="path56" /><path
         d="m 4626.67,466.363 c 0,45.246 0,53.371 -0.58,62.657 -0.59,9.863 -2.9,14.5 -12.47,16.531 -2.33,0.582 -7.26,0.871 -9.87,0.871 -1.16,0 -2.32,0.582 -2.32,1.742 0,1.738 1.46,2.32 4.64,2.32 6.67,0 14.5,0 20.89,-0.289 l 11.89,-0.582 c 2.03,0 59.76,0 66.43,0.289 5.51,0.293 10.14,0.868 12.47,1.45 1.44,0.293 2.61,1.449 4.06,1.449 0.87,0 1.16,-1.156 1.16,-2.606 0,-2.031 -1.45,-5.511 -2.32,-13.636 -0.29,-2.903 -0.87,-15.664 -1.46,-19.141 -0.28,-1.453 -0.86,-3.195 -2.02,-3.195 -1.75,0 -2.32,1.449 -2.32,3.769 0,2.031 -0.29,6.965 -1.74,10.446 -2.03,4.644 -4.93,8.121 -20.6,9.863 -4.93,0.582 -36.55,0.871 -39.74,0.871 -1.15,0 -1.74,-0.871 -1.74,-2.902 v -80.059 c 0,-2.031 0.29,-2.902 1.74,-2.902 3.78,0 39.45,0 46.12,0.582 6.96,0.578 11.03,1.156 13.63,4.058 2.04,2.324 3.2,3.774 4.36,3.774 0.87,0 1.45,-0.582 1.45,-2.325 0,-1.738 -1.45,-6.668 -2.32,-16.238 -0.59,-5.808 -1.16,-16.539 -1.16,-18.566 0,-2.324 0,-5.512 -2.03,-5.512 -1.46,0 -2.03,1.16 -2.03,2.613 0,2.899 0,5.801 -1.17,9.571 -1.16,4.062 -3.77,8.992 -15.07,10.152 -7.84,0.867 -36.56,1.449 -41.49,1.449 -1.44,0 -2.03,-0.871 -2.03,-2.031 v -25.523 c 0,-9.864 -0.28,-43.512 0,-49.606 0.87,-20.016 5.22,-23.785 33.65,-23.785 7.54,0 20.31,0 27.84,3.191 7.55,3.192 11.03,8.992 13.06,20.887 0.58,3.188 1.16,4.352 2.61,4.352 1.74,0 1.74,-2.325 1.74,-4.352 0,-2.324 -2.32,-22.043 -3.77,-28.141 -2.03,-7.539 -4.35,-7.539 -15.67,-7.539 -21.74,0 -37.7,0.578 -49.01,0.871 -11.32,0.582 -18.28,0.868 -22.63,0.868 -0.58,0 -5.52,0 -11.6,-0.286 -5.81,0 -12.48,-0.582 -16.83,-0.582 -3.19,0 -4.63,0.582 -4.63,2.321 0,0.867 0.57,1.738 2.31,1.738 2.61,0 6.09,0.582 8.7,1.16 5.8,1.164 7.26,7.547 8.42,15.953 1.45,12.188 1.45,35.102 1.45,62.95 v 51.05"
         style="fill:#264391;fill-opacity:1;fill-rule:nonzero;stroke:none"
         id="path58" /><path
         d="m 4852.58,410.09 c 1.17,0 1.17,0.578 0.87,1.742 l -25.23,67.582 c -1.45,3.774 -2.9,3.774 -4.36,0 l -23.78,-67.582 c -0.29,-1.164 0,-1.742 0.87,-1.742 z m -28.42,102.683 c 3.19,8.122 4.35,9.571 6.09,9.571 2.61,0 3.48,-3.477 6.09,-8.989 4.64,-10.445 45.54,-112.257 61.2,-149.679 9.29,-22.047 16.24,-25.235 21.76,-26.977 3.77,-1.156 7.54,-1.449 10.15,-1.449 1.45,0 3.19,-0.578 3.19,-2.027 0,-1.45 -2.9,-2.032 -5.8,-2.032 -3.77,0 -22.63,0 -40.32,0.582 -4.93,0.286 -8.99,0.286 -8.99,1.739 0,1.16 0.58,1.16 1.74,1.738 1.45,0.582 4.06,2.609 2.32,6.672 l -22.91,56.562 c -0.59,1.164 -0.87,1.454 -2.33,1.454 h -58.87 c -1.17,0 -2.04,-0.583 -2.62,-2.032 l -14.5,-39.449 c -2.33,-6.094 -3.77,-12.184 -3.77,-16.535 0,-4.93 4.34,-6.672 8.7,-6.672 h 2.32 c 2.03,0 2.61,-0.871 2.61,-2.027 0,-1.45 -1.46,-2.032 -3.77,-2.032 -6.09,0 -20.02,0.868 -22.92,0.868 -2.61,0 -15.37,-0.868 -25.81,-0.868 -3.19,0 -4.93,0.582 -4.93,2.032 0,1.156 1.16,2.027 2.31,2.027 1.75,0 5.52,0.293 7.55,0.582 11.6,1.449 16.53,10.152 21.47,22.625 l 60.04,154.316"
         style="fill:#264391;fill-opacity:1;fill-rule:nonzero;stroke:none"
         id="path60" /><path
         d="m 4976.69,425.465 c 0,-1.453 0.59,-2.32 1.75,-3.195 3.77,-2.028 16.82,-3.77 28.14,-3.77 6.09,0 13.04,0.289 19.14,4.352 8.7,5.8 15.38,18.859 15.38,37.711 0,30.746 -16.83,48.441 -44.09,48.441 -7.55,0 -15.67,-0.871 -18.28,-1.449 -1.16,-0.582 -2.04,-1.453 -2.04,-2.903 z m -22.04,20.883 c 0,38.289 0,45.25 -0.57,53.082 -0.59,8.41 -2.03,12.472 -10.45,13.636 -2.03,0.289 -6.38,0.575 -8.7,0.575 -0.87,0 -2.03,1.164 -2.03,2.031 0,1.453 1.16,2.035 4.06,2.035 11.6,0 28.72,-0.582 30.16,-0.582 2.62,0 24.09,0.582 31.92,0.582 16.24,0 34.23,-1.453 47.57,-10.734 6.37,-4.645 17.69,-16.535 17.69,-33.649 0,-18.277 -7.55,-35.972 -31.33,-56.273 20.88,-26.11 38.58,-48.442 53.37,-63.813 13.64,-13.925 22.05,-16.246 28.43,-17.113 4.93,-0.875 7.54,-0.875 8.99,-0.875 1.45,0 2.33,-1.16 2.33,-2.027 0,-1.45 -1.46,-2.032 -6.09,-2.032 h -15.96 c -14.5,0 -20.89,1.45 -27.27,4.934 -11.02,5.797 -20.3,17.688 -34.8,36.254 -10.73,13.344 -22.05,29.301 -27.56,35.969 -1.16,1.16 -1.74,1.453 -3.49,1.453 l -32.48,0.578 c -1.16,0 -1.75,-0.578 -1.75,-2.031 v -5.801 c 0,-23.789 0,-42.93 1.17,-53.082 0.87,-7.254 2.32,-11.891 10.15,-13.055 3.48,-0.578 9,-1.16 11.31,-1.16 1.74,0 2.03,-1.16 2.03,-2.027 0,-1.164 -1.16,-2.032 -4.06,-2.032 -13.92,0 -30.17,0.868 -31.33,0.868 -0.28,0 -17.4,-0.868 -25.23,-0.868 -2.61,0 -4.06,0.582 -4.06,2.032 0,0.867 0.58,2.027 2.03,2.027 2.32,0 5.51,0.582 7.83,1.16 4.93,1.164 5.52,5.801 6.67,13.055 1.45,10.152 1.45,29.586 1.45,53.371 v 43.512"
         style="fill:#264391;fill-opacity:1;fill-rule:nonzero;stroke:none"
         id="path62" /><path
         d="m 5180.29,402.836 c 0,-23.785 0,-43.219 1.16,-53.371 0.87,-7.254 2.03,-11.891 9.86,-13.055 3.48,-0.578 9.28,-1.16 11.61,-1.16 1.73,0 2.03,-1.16 2.03,-2.027 0,-1.164 -1.17,-2.032 -4.07,-2.032 -13.92,0 -30.16,0.868 -31.62,0.868 -1.16,0 -18.84,-0.868 -26.39,-0.868 -2.9,0 -4.07,0.582 -4.07,2.032 0,0.867 0.59,1.738 2.03,1.738 2.33,0 5.23,0.582 7.55,1.164 5.22,1.156 6.67,6.086 7.54,13.34 1.16,10.152 1.16,29.586 1.16,53.371 v 103.555 l -36.84,-0.582 c -15.95,-0.286 -22.04,-2.032 -25.81,-7.832 -2.9,-4.348 -3.19,-6.086 -4.06,-7.832 -0.58,-2.024 -1.45,-2.317 -2.61,-2.317 -0.59,0 -1.75,0.578 -1.75,2.031 0,2.61 4.93,24.657 5.52,26.684 0.29,1.449 1.74,4.645 2.61,4.645 1.73,0 4.35,-2.032 11.31,-2.903 7.25,-0.867 17.11,-1.16 20.01,-1.16 h 96.31 c 8.41,0 14.21,0.582 18.27,1.16 3.77,0.582 6.1,1.156 7.25,1.156 1.16,0 1.16,-1.449 1.16,-2.898 0,-7.539 -0.87,-25.234 -0.87,-28.137 0,-2.027 -1.16,-3.191 -2.32,-3.191 -1.15,0 -1.74,0.875 -2.02,4.355 l -0.3,2.606 c -0.86,7.547 -6.38,13.058 -30.75,13.633 l -31.9,0.582 V 402.836"
         style="fill:#264391;fill-opacity:1;fill-rule:nonzero;stroke:none"
         id="path64" /><path
         d="m 5445.66,402.836 c 0,-23.785 0.28,-43.219 1.44,-53.371 0.87,-7.254 1.46,-11.891 9.29,-13.055 3.48,-0.578 9.28,-1.16 11.31,-1.16 1.74,0 2.32,-1.16 2.32,-2.027 0,-1.164 -1.45,-2.032 -4.35,-2.032 -13.93,0 -30.17,0.868 -31.62,0.868 -1.15,0 -17.69,-0.868 -25.24,-0.868 -2.9,0 -4.06,0.582 -4.06,2.032 0,0.867 0.59,2.027 2.03,2.027 2.33,0 5.23,0.582 7.55,1.16 5.22,1.164 6.09,6.094 6.95,13.344 1.17,10.152 1.17,28.719 1.17,52.5 v 24.66 c 0,1.156 -0.58,1.449 -1.45,1.449 h -106.45 c -0.87,0 -1.46,-0.293 -1.46,-1.449 v -24.66 c 0,-23.781 0,-42.637 1.16,-52.789 0.87,-7.254 1.74,-11.891 9.29,-13.055 3.77,-0.578 9.28,-1.16 11.6,-1.16 1.45,0 2.03,-1.16 2.03,-2.027 0,-1.164 -1.16,-2.032 -4.06,-2.032 -14.22,0 -30.46,0.868 -31.62,0.868 -1.45,0 -17.7,-0.868 -25.53,-0.868 -2.61,0 -4.06,0.582 -4.06,2.032 0,0.867 0.59,2.027 2.03,2.027 2.32,0 5.52,0.582 7.83,1.16 4.93,1.164 5.52,5.801 6.67,13.055 1.46,10.152 1.46,29.586 1.46,53.371 v 43.512 c 0,38.289 0,45.25 -0.58,53.082 -0.58,8.41 -2.03,12.472 -10.45,13.636 -2.03,0.289 -6.37,0.575 -8.7,0.575 -0.87,0 -2.03,1.164 -2.03,2.031 0,1.453 1.16,2.035 4.06,2.035 11.6,0 27.85,-0.582 29.3,-0.582 1.16,0 17.4,0.582 25.23,0.582 2.9,0 4.07,-0.582 4.07,-2.035 0,-0.867 -1.17,-2.031 -2.04,-2.031 -1.73,0 -3.47,0 -6.37,-0.575 -6.96,-1.457 -8.42,-4.933 -9,-13.636 -0.29,-7.832 -0.29,-15.371 -0.29,-53.664 v -5.219 c 0,-1.449 0.59,-1.449 1.46,-1.449 H 5421 c 0.87,0 1.45,0 1.45,1.449 v 5.219 c 0,38.293 -0.29,45.832 -0.58,53.664 -0.59,8.41 -1.74,12.472 -10.16,13.636 -2.03,0.289 -6.37,0.575 -8.7,0.575 -1.16,0 -2.03,1.164 -2.03,2.031 0,1.453 1.16,2.035 4.06,2.035 11.32,0 27.86,-0.582 29.01,-0.582 1.45,0 17.69,0.582 25.24,0.582 2.9,0 4.35,-0.582 4.35,-2.035 0,-0.867 -1.16,-2.031 -2.32,-2.031 -1.74,0 -3.19,0 -6.38,-0.575 -6.67,-1.457 -8.13,-4.933 -8.7,-13.636 -0.58,-7.832 -0.58,-14.793 -0.58,-53.082 v -43.512"
         style="fill:#264391;fill-opacity:1;fill-rule:nonzero;stroke:none"
         id="path66" /><path
         d="m 5594.66,334.961 c -4.06,2.031 -4.34,3.191 -4.34,11.023 0,14.504 1.15,26.106 1.44,30.75 0.3,3.188 0.87,4.637 2.33,4.637 1.74,0 2.03,-0.867 2.03,-3.187 0,-2.614 0,-6.676 0.87,-10.735 4.34,-21.465 23.49,-29.59 42.93,-29.59 27.84,0 41.47,20.016 41.47,38.582 0,20.016 -8.41,31.614 -33.35,52.211 l -13.05,10.731 c -30.76,25.242 -37.72,43.222 -37.72,62.945 0,31.039 23.21,52.219 60.05,52.219 11.31,0 19.73,-1.164 26.97,-2.902 5.52,-1.161 7.83,-1.45 10.16,-1.45 2.32,0 2.9,-0.582 2.9,-2.031 0,-1.449 -1.16,-11.027 -1.16,-30.746 0,-4.645 -0.58,-6.676 -2.03,-6.676 -1.74,0 -2.04,1.449 -2.32,3.774 -0.29,3.476 -2.03,11.308 -3.77,14.504 -1.75,3.187 -9.58,15.371 -36.26,15.371 -20.02,0 -35.68,-12.473 -35.68,-33.649 0,-16.531 7.54,-26.976 35.39,-48.73 l 8.12,-6.383 c 34.23,-26.977 42.35,-44.961 42.35,-68.164 0,-11.895 -4.64,-33.942 -24.65,-48.152 -12.48,-8.704 -28.15,-12.184 -43.81,-12.184 -13.63,0 -26.97,2.031 -38.87,7.832"
         style="fill:#264391;fill-opacity:1;fill-rule:nonzero;stroke:none"
         id="path68" /><path
         d="m 5750.69,354.395 c -24.95,21.464 -31.04,49.605 -31.04,73.101 0,16.531 6.09,45.246 28.71,67.293 15.39,14.797 38.59,26.399 77.75,26.399 10.14,0 24.65,-0.872 37.13,-2.903 9.57,-1.742 17.69,-3.48 26.1,-3.769 2.61,0 3.19,-1.161 3.19,-2.614 0,-2.027 -0.58,-4.929 -1.16,-13.925 -0.29,-8.118 -0.29,-21.75 -0.57,-25.235 -0.3,-3.769 -1.46,-5.219 -2.91,-5.219 -1.74,0 -2.03,1.739 -2.03,5.219 0,9.571 -4.06,19.434 -10.73,24.66 -8.99,7.539 -27.56,13.633 -50.18,13.633 -32.79,0 -48.45,-8.707 -57.44,-17.113 -18.85,-17.41 -22.92,-39.453 -22.92,-64.402 0,-47.278 37.43,-89.34 91.96,-89.34 19.14,0 31.9,1.449 42.06,11.605 5.51,5.512 8.99,15.953 9.86,20.594 0.58,2.609 0.87,3.48 2.61,3.48 1.16,0 2.32,-1.738 2.32,-3.48 0,-1.738 -3.48,-23.203 -6.09,-31.617 -1.45,-4.637 -2.03,-5.512 -6.38,-7.25 -10.45,-4.063 -29.59,-5.512 -46.12,-5.512 -38.29,0 -64.11,8.992 -84.12,26.395"
         style="fill:#264391;fill-opacity:1;fill-rule:nonzero;stroke:none"
         id="path70" /><path
         d="m 5965.58,402.836 c 0,-23.785 0,-43.219 1.16,-53.371 0.87,-7.254 1.74,-11.891 9.29,-13.055 3.77,-0.578 9.28,-1.16 11.6,-1.16 1.45,0 2.03,-1.16 2.03,-2.027 0,-1.164 -1.16,-2.032 -4.06,-2.032 -14.22,0 -30.75,0.868 -31.91,0.868 -1.45,0 -17.41,-0.868 -25.24,-0.868 -2.61,0 -4.06,0.582 -4.06,2.032 0,0.867 0.59,2.027 2.03,2.027 2.33,0 5.52,0.582 7.83,1.16 4.93,1.164 5.8,5.801 6.67,13.055 1.16,10.152 1.46,29.586 1.46,53.371 v 43.512 c 0,38.289 0,45.25 -0.58,53.082 -0.58,8.41 -2.62,12.179 -8.12,13.343 -2.9,0.582 -6.1,0.868 -7.84,0.868 -1.16,0 -2.03,1.164 -2.03,2.031 0,1.453 1.17,2.035 4.07,2.035 8.4,0 24.36,-0.582 25.81,-0.582 1.16,0 17.69,0.582 25.52,0.582 2.9,0 4.07,-0.582 4.07,-2.035 0,-0.867 -1.17,-2.031 -2.03,-2.031 -1.74,0 -3.48,0 -6.38,-0.575 -6.96,-1.457 -8.42,-4.933 -9,-13.636 -0.29,-7.832 -0.29,-14.793 -0.29,-53.082 v -43.512"
         style="fill:#264391;fill-opacity:1;fill-rule:nonzero;stroke:none"
         id="path72" /><path
         d="m 6037.79,446.348 c 0,38.289 0,45.25 -0.58,53.082 -0.58,8.41 -2.03,12.472 -10.45,13.636 -2.03,0.289 -6.37,0.575 -8.7,0.575 -0.87,0 -2.03,1.164 -2.03,2.031 0,1.453 1.16,2.035 4.06,2.035 11.6,0 28.14,-0.582 29.59,-0.582 1.74,0 55.11,-0.289 60.91,0 4.93,0.293 9.58,1.16 11.61,1.449 1.15,0.293 2.32,1.16 3.48,1.16 0.87,0 1.16,-1.16 1.16,-2.316 0,-1.746 -1.45,-4.645 -2.03,-11.609 -0.29,-2.317 -0.87,-13.34 -1.46,-16.239 -0.28,-1.164 -1.15,-2.613 -2.31,-2.613 -1.46,0 -2.03,1.164 -2.03,3.188 0,1.746 -0.29,5.808 -1.46,8.707 -1.73,4.058 -4.34,5.8 -18.27,7.539 -4.34,0.582 -33.93,0.871 -36.83,0.871 -1.17,0 -1.46,-0.871 -1.46,-2.61 v -67.007 c 0,-1.743 0,-2.61 1.46,-2.61 3.18,0 36.83,0 42.63,0.578 6.1,0.582 9.87,0.871 12.47,3.485 1.75,1.738 2.9,3.187 3.77,3.187 0.88,0 1.46,-0.574 1.46,-2.027 0,-1.449 -1.46,-5.512 -2.03,-13.637 -0.58,-4.926 -1.17,-14.211 -1.17,-15.953 0,-2.031 -0.57,-4.637 -2.31,-4.637 -1.16,0 -1.75,0.867 -1.75,2.317 0,2.32 0,4.933 -1.15,8.121 -0.88,3.48 -3.19,6.383 -13.06,7.543 -6.96,0.871 -34.23,1.16 -38.58,1.16 -1.45,0 -1.74,-0.871 -1.74,-1.738 v -20.598 c 0,-8.414 -0.28,-37.129 0,-42.059 0.59,-16.535 5.23,-19.722 30.46,-19.722 6.67,0 18.86,0 25.53,2.605 6.67,2.903 10.15,7.254 11.6,17.117 0.58,2.899 1.16,3.774 2.61,3.774 1.45,0 1.74,-2.031 1.74,-3.774 0,-1.738 -2.03,-18.566 -3.48,-23.785 -1.74,-6.383 -4.35,-6.383 -14.21,-6.383 -19.15,0 -33.95,0.582 -44.39,0.871 -10.73,0.579 -17.4,0.579 -21.17,0.579 -0.58,0 -5.51,0 -11.02,-0.286 -4.93,-0.293 -10.74,-0.582 -14.8,-0.582 -2.61,0 -4.06,0.582 -4.06,2.032 0,0.867 0.59,2.027 2.03,2.027 2.33,0 5.52,0.875 7.83,1.16 4.93,0.871 5.52,5.801 6.67,13.055 1.46,10.152 1.46,29.586 1.46,53.371 v 43.512"
         style="fill:#264391;fill-opacity:1;fill-rule:nonzero;stroke:none"
         id="path74" /><path
         d="m 6196.71,364.84 c 0.58,-20.309 2.9,-26.399 9.87,-28.141 4.64,-1.156 10.44,-1.449 12.76,-1.449 1.16,0 2.03,-0.871 2.03,-2.027 0,-1.45 -1.74,-2.032 -4.64,-2.032 -14.51,0 -24.65,0.868 -26.98,0.868 -2.31,0 -13.06,-0.868 -24.66,-0.868 -2.6,0 -4.05,0.289 -4.05,2.032 0,1.156 0.87,2.027 2.02,2.027 2.03,0 6.68,0.293 10.45,1.449 6.38,1.742 7.25,8.414 7.25,30.75 v 141.262 c 0,9.863 1.45,12.477 3.48,12.477 2.9,0 7.25,-4.934 9.87,-7.547 4.06,-4.055 41.19,-43.508 80.63,-84.121 25.24,-26.102 52.5,-55.399 60.33,-63.52 l -2.6,123.57 c -0.3,15.953 -1.74,21.465 -9.57,22.914 -4.64,0.871 -10.44,1.157 -12.48,1.157 -1.74,0 -2.03,1.453 -2.03,2.324 0,1.453 2.03,1.742 4.94,1.742 11.6,0 23.77,-0.582 26.67,-0.582 2.91,0 11.32,0.582 21.76,0.582 2.61,0 4.64,-0.289 4.64,-1.742 0,-0.871 -1.15,-2.324 -2.9,-2.324 -1.16,0 -3.18,0 -6.08,-0.575 -8.42,-1.742 -9,-6.675 -9,-21.468 l -0.58,-144.453 c 0,-16.247 -0.29,-17.696 -2.03,-17.696 -2.61,0 -5.22,2.031 -19.44,15.082 -2.61,2.324 -39.44,38.582 -66.42,66.719 -29.58,31.035 -58.3,61.207 -66.14,69.906 l 2.9,-116.316"
         style="fill:#264391;fill-opacity:1;fill-rule:nonzero;stroke:none"
         id="path76" /><path
         d="m 6413.92,354.395 c -24.95,21.464 -31.03,49.605 -31.03,73.101 0,16.531 6.08,45.246 28.71,67.293 15.38,14.797 38.58,26.399 77.74,26.399 10.15,0 24.65,-0.872 37.13,-2.903 9.57,-1.742 17.7,-3.48 26.1,-3.769 2.61,0 3.2,-1.161 3.2,-2.614 0,-2.027 -0.59,-4.929 -1.17,-13.925 -0.29,-8.118 -0.29,-21.75 -0.57,-25.235 -0.29,-3.769 -1.46,-5.219 -2.91,-5.219 -1.74,0 -2.02,1.739 -2.02,5.219 0,9.571 -4.07,19.434 -10.74,24.66 -8.99,7.539 -27.55,13.633 -50.18,13.633 -32.78,0 -48.45,-8.707 -57.43,-17.113 -18.86,-17.41 -22.92,-39.453 -22.92,-64.402 0,-47.278 37.42,-89.34 91.95,-89.34 19.14,0 31.9,1.449 42.06,11.605 5.51,5.512 8.99,15.953 9.86,20.594 0.58,2.609 0.87,3.48 2.61,3.48 1.16,0 2.33,-1.738 2.33,-3.48 0,-1.738 -3.49,-23.203 -6.1,-31.617 -1.44,-4.637 -2.03,-5.512 -6.37,-7.25 -10.45,-4.063 -29.59,-5.512 -46.13,-5.512 -38.29,0 -64.11,8.992 -84.12,26.395"
         style="fill:#264391;fill-opacity:1;fill-rule:nonzero;stroke:none"
         id="path78" /><path
         d="m 6605.61,446.348 c 0,38.289 0,45.25 -0.58,53.082 -0.58,8.41 -2.03,12.472 -10.45,13.636 -2.03,0.289 -6.37,0.575 -8.7,0.575 -0.87,0 -2.03,1.164 -2.03,2.031 0,1.453 1.16,2.035 4.07,2.035 11.6,0 28.13,-0.582 29.58,-0.582 1.74,0 55.11,-0.289 60.91,0 4.93,0.293 9.58,1.16 11.61,1.449 1.16,0.293 2.32,1.16 3.48,1.16 0.87,0 1.16,-1.16 1.16,-2.316 0,-1.746 -1.45,-4.645 -2.03,-11.609 -0.29,-2.317 -0.87,-13.34 -1.45,-16.239 -0.29,-1.164 -1.16,-2.613 -2.32,-2.613 -1.45,0 -2.03,1.164 -2.03,3.188 0,1.746 -0.29,5.808 -1.45,8.707 -1.74,4.058 -4.35,5.8 -18.28,7.539 -4.35,0.582 -33.93,0.871 -36.83,0.871 -1.16,0 -1.46,-0.871 -1.46,-2.61 v -67.007 c 0,-1.743 0,-2.61 1.46,-2.61 3.18,0 36.83,0 42.64,0.578 6.09,0.582 9.86,0.871 12.47,3.485 1.74,1.738 2.9,3.187 3.77,3.187 0.87,0 1.45,-0.574 1.45,-2.027 0,-1.449 -1.45,-5.512 -2.03,-13.637 -0.58,-4.926 -1.16,-14.211 -1.16,-15.953 0,-2.031 -0.58,-4.637 -2.32,-4.637 -1.16,0 -1.75,0.867 -1.75,2.317 0,2.32 0,4.933 -1.15,8.121 -0.87,3.48 -3.19,6.383 -13.05,7.543 -6.97,0.871 -34.23,1.16 -38.59,1.16 -1.44,0 -1.74,-0.871 -1.74,-1.738 v -20.598 c 0,-8.414 -0.28,-37.129 0,-42.059 0.59,-16.535 5.23,-19.722 30.46,-19.722 6.67,0 18.86,0 25.53,2.605 6.67,2.903 10.16,7.254 11.6,17.117 0.58,2.899 1.16,3.774 2.61,3.774 1.45,0 1.75,-2.031 1.75,-3.774 0,-1.738 -2.03,-18.566 -3.49,-23.785 -1.74,-6.383 -4.35,-6.383 -14.21,-6.383 -19.15,0 -33.94,0.582 -44.38,0.871 -10.74,0.579 -17.41,0.579 -21.18,0.579 -0.58,0 -5.51,0 -11.02,-0.286 -4.93,-0.293 -10.73,-0.582 -14.8,-0.582 -2.6,0 -4.06,0.582 -4.06,2.032 0,0.867 0.59,2.027 2.03,2.027 2.33,0 5.52,0.875 7.84,1.16 4.93,0.871 5.51,5.801 6.67,13.055 1.45,10.152 1.45,29.586 1.45,53.371 v 43.512"
         style="fill:#264391;fill-opacity:1;fill-rule:nonzero;stroke:none"
         id="path80" /><path
         d="m 578.898,87.3125 c 0,-27.8437 0,-50.7617 1.45,-62.9531 C 581.223,15.9609 582.961,9.57031 591.66,8.41016 595.723,7.83203 602.105,7.25 604.719,7.25 c 1.734,0 2.316,-0.87109 2.316,-1.73828 0,-1.45313 -1.449,-2.32031 -4.64,-2.32031 -15.954,0 -34.231,0.86718 -35.68,0.86718 -1.449,0 -19.723,-0.86718 -28.422,-0.86718 -3.195,0 -4.645,0.57812 -4.645,2.32031 0,0.86719 0.582,1.73828 2.321,1.73828 2.609,0 6.094,0.58203 8.699,1.16016 5.805,1.16015 7.258,7.55074 8.414,15.94924 1.449,12.1914 1.449,35.1094 1.449,62.9531 v 51.0505 c 0,45.25 0,53.375 -0.578,62.657 -0.578,9.863 -3.48,14.796 -9.859,16.246 -3.196,0.867 -6.965,1.156 -8.996,1.156 -1.16,0 -2.321,0.582 -2.321,1.746 0,1.734 1.453,2.316 4.641,2.316 9.574,0 27.848,-0.867 29.297,-0.867 1.449,0 19.726,0.867 28.426,0.867 3.195,0 4.644,-0.582 4.644,-2.316 0,-1.164 -1.164,-1.746 -2.324,-1.746 -2.027,0 -3.77,-0.289 -7.25,-0.867 -7.832,-1.453 -10.152,-6.383 -10.734,-16.535 -0.579,-9.282 -0.579,-17.407 -0.579,-62.657 V 87.3125"
         style="fill:#264391;fill-opacity:1;fill-rule:nonzero;stroke:none"
         id="path82" /><path
         d="M 662.988,36.8398 C 663.57,16.5313 665.891,10.4414 672.852,8.69922 677.488,7.53906 683.293,7.25 685.613,7.25 c 1.16,0 2.035,-0.87109 2.035,-2.03125 0,-1.44922 -1.746,-2.02734 -4.644,-2.02734 -14.504,0 -24.652,0.86718 -26.981,0.86718 -2.316,0 -13.05,-0.86718 -24.652,-0.86718 -2.609,0 -4.062,0.28906 -4.062,2.02734 0,1.16016 0.871,2.03125 2.031,2.03125 2.031,0 6.672,0.28906 10.445,1.44922 6.375,1.74218 7.25,8.41018 7.25,30.74998 V 180.715 c 0,9.859 1.449,12.473 3.485,12.473 2.898,0 7.25,-4.93 9.855,-7.543 4.063,-4.059 41.191,-43.512 80.641,-84.122 C 766.254,75.4219 793.52,46.1211 801.352,38 l -2.614,123.57 c -0.285,15.953 -1.734,21.465 -9.566,22.918 -4.645,0.867 -10.445,1.157 -12.477,1.157 -1.738,0 -2.031,1.449 -2.031,2.324 0,1.449 2.031,1.738 4.93,1.738 11.605,0 23.789,-0.582 26.691,-0.582 2.899,0 11.313,0.582 21.75,0.582 2.613,0 4.645,-0.289 4.645,-1.738 0,-0.875 -1.16,-2.324 -2.899,-2.324 -1.164,0 -3.195,0 -6.093,-0.579 -8.415,-1.742 -8.997,-6.671 -8.997,-21.468 L 814.117,19.1484 c 0,-16.24996 -0.293,-17.69918 -2.031,-17.69918 -2.613,0 -5.223,2.03125 -19.434,15.08208 -2.613,2.3281 -39.453,38.5859 -66.425,66.7226 -29.59,31.0311 -58.305,61.2031 -66.137,69.9061 l 2.898,-116.3202"
         style="fill:#264391;fill-opacity:1;fill-rule:nonzero;stroke:none"
         id="path84" /><path
         d="m 876.43,118.348 c 0,38.293 0,45.25 -0.578,53.082 -0.582,8.414 -2.036,12.476 -10.442,13.636 -2.031,0.289 -6.383,0.579 -8.707,0.579 -0.867,0 -2.023,1.16 -2.023,2.031 0,1.449 1.156,2.031 4.054,2.031 11.602,0 27.559,-0.582 29.008,-0.582 4.934,0 60.332,-0.285 66.137,0 4.93,0.293 9.281,0.293 11.605,1.164 1.45,0.285 2.606,1.449 3.481,1.449 1.156,0 1.738,-1.164 1.738,-2.32 0,-1.742 -1.16,-4.645 -2.031,-11.605 -0.289,-2.321 -0.582,-13.34 -1.156,-16.243 -0.293,-1.16 -1.164,-2.609 -2.325,-2.609 -1.16,0 -2.031,1.16 -2.031,2.898 0,2.032 -0.871,6.094 -2.32,9.282 -1.449,3.191 -7.539,7.254 -17.402,7.254 l -41.774,0.578 c -1.449,0 -2.031,-0.578 -2.031,-2.61 v -67.297 c 0,-1.449 0,-2.316 1.746,-2.316 l 34.809,0.285 c 4.347,0 8.121,0 11.601,0.293 6.09,0.578 9.57,1.449 11.895,4.352 1.156,1.449 2.32,2.605 3.187,2.605 1.16,0 1.449,-0.867 1.449,-2.023 0,-1.453 -1.738,-5.512 -2.316,-13.637 -0.582,-4.9297 -0.871,-14.793 -0.871,-16.5352 0,-2.3203 -0.582,-4.9335 -2.324,-4.9335 -1.45,0 -1.739,1.164 -1.739,2.3242 -0.293,2.6093 -0.582,6.0898 -1.742,8.9922 -1.156,3.4804 -5.223,6.6718 -13.055,7.832 -6.378,0.8672 -36.546,0.5781 -40.894,0.5781 -1.453,0 -1.746,-0.5781 -1.746,-2.3164 V 74.8398 c 0,-24.371 0,-43.8007 1.164,-53.3789 0.867,-7.25 2.316,-11.89059 9.281,-13.05074 3.77,-0.57813 9.281,-1.16016 11.602,-1.16016 1.449,0 2.031,-1.16016 2.031,-2.03125 0,-1.16016 -1.156,-2.02734 -4.063,-2.02734 -14.207,0 -30.746,0.86718 -31.906,0.86718 -1.449,0 -17.406,-0.86718 -25.238,-0.86718 -2.606,0 -4.059,0.57812 -4.059,2.02734 0,0.87109 0.582,2.03125 2.035,2.03125 2.317,0 5.504,0.87109 7.833,1.16016 4.929,0.87109 5.503,5.80074 6.667,13.05074 1.45,10.1602 1.45,29.5899 1.45,53.3789 v 43.5082"
         style="fill:#264391;fill-opacity:1;fill-rule:nonzero;stroke:none"
         id="path86" /><path
         d="m 1098,10.1602 c 22.92,0 69.04,12.1796 69.04,83.5351 0,59.1717 -35.97,90.2107 -76.29,90.2107 -42.64,0 -73.39,-26.691 -73.39,-80.351 0,-57.4339 34.52,-93.3948 80.64,-93.3948 z m -5.8,183.0278 c 57.44,0 100.94,-35.098 100.94,-92.536 C 1193.14,45.5391 1152.25,0 1090.75,0 c -69.91,0 -99.781,52.5039 -99.781,96.8828 0,39.7422 30.741,96.3052 101.231,96.3052"
         style="fill:#264391;fill-opacity:1;fill-rule:nonzero;stroke:none"
         id="path88" /><path
         d="m 1256.91,97.4648 c 0,-1.4492 0.59,-2.3203 1.74,-3.1914 3.78,-2.0273 16.83,-3.7695 28.14,-3.7695 6.09,0 13.05,0.2891 19.15,4.3477 8.7,5.8004 15.37,18.8594 15.37,37.7114 0,30.746 -16.83,48.441 -44.09,48.441 -7.54,0 -15.67,-0.867 -18.27,-1.449 -1.17,-0.582 -2.04,-1.45 -2.04,-2.899 z m -22.04,20.8832 c 0,38.293 0,45.25 -0.58,53.082 -0.58,8.414 -2.03,12.476 -10.44,13.636 -2.03,0.289 -6.38,0.579 -8.71,0.579 -0.87,0 -2.02,1.16 -2.02,2.031 0,1.449 1.15,2.031 4.05,2.031 11.6,0 28.72,-0.582 30.17,-0.582 2.61,0 24.08,0.582 31.91,0.582 16.24,0 34.23,-1.449 47.57,-10.734 6.38,-4.641 17.7,-16.532 17.7,-33.645 0,-18.277 -7.55,-35.973 -31.33,-56.2772 20.88,-26.1055 38.58,-48.4414 53.37,-63.8125 13.64,-13.9297 22.04,-16.25002 28.43,-17.11721 4.93,-0.87109 7.54,-0.87109 8.99,-0.87109 1.45,0 2.32,-1.16016 2.32,-2.03125 0,-1.44922 -1.45,-2.02734 -6.09,-2.02734 h -15.96 c -14.5,0 -20.88,1.44922 -27.26,4.92968 -11.02,5.80861 -20.31,17.69921 -34.81,36.25781 -10.73,13.3438 -22.05,29.3008 -27.56,35.9727 -1.16,1.1562 -1.74,1.4492 -3.48,1.4492 l -32.49,0.582 c -1.15,0 -1.74,-0.582 -1.74,-2.0312 v -5.8008 c 0,-23.7891 0,-42.9297 1.16,-53.0899 0.88,-7.25 2.33,-11.89059 10.16,-13.05074 3.48,-0.57813 8.99,-1.16016 11.31,-1.16016 1.74,0 2.03,-1.16016 2.03,-2.03125 0,-1.16016 -1.16,-2.02734 -4.06,-2.02734 -13.93,0 -30.17,0.86718 -31.33,0.86718 -0.29,0 -17.41,-0.86718 -25.24,-0.86718 -2.6,0 -4.06,0.57812 -4.06,2.02734 0,0.87109 0.59,2.03125 2.04,2.03125 2.32,0 5.5,0.58203 7.83,1.16016 4.93,1.16015 5.51,5.80074 6.67,13.05074 1.45,10.1602 1.45,29.5899 1.45,53.3789 v 43.5082"
         style="fill:#264391;fill-opacity:1;fill-rule:nonzero;stroke:none"
         id="path90" /><path
         d="m 1615.1,34.8086 c 0.87,-8.6992 2.61,-22.0469 13.05,-25.52735 7.26,-2.32031 13.93,-2.32031 16.54,-2.32031 1.16,0 2.03,-0.58203 2.03,-1.74219 0,-1.44922 -2.32,-2.32031 -5.22,-2.32031 -5.8,0 -34.23,0.29297 -43.51,1.16015 -6.1,0.58204 -7.25,1.45313 -7.25,2.61329 0,0.86718 0.57,1.73828 1.74,2.02734 1.45,0.28906 1.73,4.06248 1.16,8.71098 l -12.18,125.3048 h -0.59 L 1519.38,16.832 c -5.22,-10.74216 -6.67,-13.06247 -8.99,-13.06247 -2.32,0 -3.77,2.32031 -8.71,11.31247 -6.67,12.1875 -23.49,43.8047 -29.87,57.1446 -7.55,15.664 -28.14,57.1484 -32.49,67.3004 h -1.16 L 1428.3,28.1406 c -0.29,-3.7812 -0.29,-8.4101 -0.29,-12.4804 0,-3.7696 2.32,-6.08989 6.09,-6.96098 4.35,-1.16016 8.12,-1.44922 9.86,-1.44922 0.87,0 2.03,-0.87109 2.03,-1.73828 0,-1.74219 -1.74,-2.32031 -4.64,-2.32031 -9.57,0 -21.76,0.86718 -23.79,0.86718 -2.32,0 -14.5,-0.86718 -21.46,-0.86718 -2.61,0 -4.35,0.57812 -4.35,2.32031 0,0.86719 1.16,1.73828 2.61,1.73828 2.03,0 3.77,0.28906 7.54,0.87109 8.41,1.44922 8.7,10.43751 9.86,19.73051 l 18.57,160.9884 c 0.29,2.605 1.45,4.348 2.9,4.348 1.74,0 3.77,-0.868 5.22,-3.77 l 77.16,-153.1563 74.25,152.8633 c 1.17,2.32 2.33,4.063 4.07,4.063 1.73,0 3.19,-2.032 3.77,-6.668 l 17.4,-151.7114"
         style="fill:#264391;fill-opacity:1;fill-rule:nonzero;stroke:none"
         id="path92" /><path
         d="m 1752.82,82.0898 c 1.16,0 1.16,0.5821 0.87,1.7422 l -25.24,67.586 c -1.45,3.773 -2.9,3.773 -4.35,0 l -23.78,-67.586 c -0.3,-1.1601 0,-1.7422 0.87,-1.7422 z m -28.43,102.6832 c 3.19,8.122 4.35,9.571 6.09,9.571 2.62,0 3.48,-3.477 6.09,-8.989 4.65,-10.445 45.54,-112.2534 61.21,-149.6753 9.28,-22.0508 16.24,-25.2383 21.76,-26.98048 3.77,-1.16016 7.54,-1.44922 10.15,-1.44922 1.45,0 3.19,-0.57812 3.19,-2.03125 0,-1.44922 -2.9,-2.02734 -5.8,-2.02734 -3.77,0 -22.63,0 -40.32,0.57812 -4.93,0.28906 -9,0.28906 -9,1.74219 0,1.16016 0.58,1.16016 1.75,1.73828 1.45,0.58203 4.05,2.60938 2.32,6.6797 l -22.92,56.5586 c -0.58,1.1601 -0.87,1.4492 -2.32,1.4492 h -58.88 c -1.17,0 -2.04,-0.582 -2.62,-2.0312 l -14.5,-39.4454 c -2.32,-6.1015 -3.77,-12.1796 -3.77,-16.5312 0,-4.94142 4.35,-6.6797 8.7,-6.6797 h 2.32 c 2.03,0 2.61,-0.87109 2.61,-2.03125 0,-1.44922 -1.45,-2.02734 -3.77,-2.02734 -6.09,0 -20.01,0.86718 -22.91,0.86718 -2.61,0 -15.38,-0.86718 -25.82,-0.86718 -3.19,0 -4.93,0.57812 -4.93,2.02734 0,1.16016 1.16,2.03125 2.32,2.03125 1.74,0 5.51,0.28906 7.54,0.58203 11.6,1.44922 16.53,10.15627 21.47,22.62887 l 60.04,154.3121"
         style="fill:#264391;fill-opacity:1;fill-rule:nonzero;stroke:none"
         id="path94" /><path
         d="m 1892.02,74.8398 c 0,-23.789 0,-43.2187 1.16,-53.3789 0.87,-7.25 2.03,-11.89059 9.86,-13.05074 3.48,-0.57813 9.28,-1.16016 11.6,-1.16016 1.74,0 2.03,-1.16016 2.03,-2.03125 0,-1.16016 -1.16,-2.02734 -4.06,-2.02734 -13.92,0 -30.16,0.86718 -31.61,0.86718 -1.17,0 -18.86,-0.86718 -26.4,-0.86718 -2.9,0 -4.06,0.57812 -4.06,2.02734 0,0.87109 0.58,1.74219 2.03,1.74219 2.32,0 5.22,0.57812 7.54,1.16015 5.22,1.16016 6.67,6.08981 7.54,13.33981 1.16,10.1602 1.16,29.5899 1.16,53.3789 V 178.395 l -36.84,-0.582 c -15.95,-0.29 -22.04,-2.032 -25.81,-7.833 -2.9,-4.351 -3.2,-6.089 -4.07,-7.832 -0.58,-2.027 -1.45,-2.32 -2.61,-2.32 -0.57,0 -1.74,0.582 -1.74,2.031 0,2.614 4.94,24.661 5.52,26.688 0.29,1.449 1.74,4.641 2.6,4.641 1.75,0 4.35,-2.032 11.32,-2.899 7.25,-0.871 17.11,-1.164 20.01,-1.164 h 96.31 c 8.41,0 14.21,0.582 18.27,1.164 3.77,0.578 6.09,1.156 7.25,1.156 1.16,0 1.16,-1.449 1.16,-2.898 0,-7.543 -0.87,-25.238 -0.87,-28.137 0,-2.031 -1.16,-3.195 -2.32,-3.195 -1.16,0 -1.74,0.875 -2.03,4.355 l -0.29,2.61 c -0.87,7.543 -6.38,13.054 -30.74,13.633 l -31.91,0.582 V 74.8398"
         style="fill:#264391;fill-opacity:1;fill-rule:nonzero;stroke:none"
         id="path96" /><path
         d="m 2024.82,74.8398 c 0,-23.789 0,-43.2187 1.16,-53.3789 0.87,-7.25 1.74,-11.89059 9.28,-13.05074 3.77,-0.57813 9.29,-1.16016 11.61,-1.16016 1.45,0 2.03,-1.16016 2.03,-2.03125 0,-1.16016 -1.16,-2.02734 -4.07,-2.02734 -14.2,0 -30.74,0.86718 -31.9,0.86718 -1.45,0 -17.41,-0.86718 -25.24,-0.86718 -2.61,0 -4.06,0.57812 -4.06,2.02734 0,0.87109 0.58,2.03125 2.03,2.03125 2.32,0 5.51,0.58203 7.84,1.16016 4.93,1.16015 5.8,5.80074 6.67,13.05074 1.16,10.1602 1.45,29.5899 1.45,53.3789 v 43.5082 c 0,38.293 0,45.25 -0.58,53.082 -0.59,8.414 -2.61,12.183 -8.12,13.343 -2.91,0.582 -6.1,0.872 -7.84,0.872 -1.16,0 -2.03,1.16 -2.03,2.031 0,1.449 1.16,2.031 4.06,2.031 8.41,0 24.37,-0.582 25.82,-0.582 1.16,0 17.7,0.582 25.53,0.582 2.9,0 4.05,-0.582 4.05,-2.031 0,-0.871 -1.15,-2.031 -2.03,-2.031 -1.73,0 -3.47,0 -6.38,-0.579 -6.96,-1.453 -8.41,-4.929 -8.99,-13.636 -0.29,-7.832 -0.29,-14.789 -0.29,-53.082 V 74.8398"
         style="fill:#264391;fill-opacity:1;fill-rule:nonzero;stroke:none"
         id="path98" /><path
         d="m 2176.8,10.1602 c 22.91,0 69.04,12.1796 69.04,83.5351 0,59.1717 -35.97,90.2107 -76.29,90.2107 -42.65,0 -73.39,-26.691 -73.39,-80.351 0,-57.4339 34.52,-93.3948 80.64,-93.3948 z M 2171,193.188 c 57.43,0 100.94,-35.098 100.94,-92.536 C 2271.94,45.5391 2231.04,0 2169.55,0 c -69.91,0 -99.79,52.5039 -99.79,96.8828 0,39.7422 30.75,96.3052 101.24,96.3052"
         style="fill:#264391;fill-opacity:1;fill-rule:nonzero;stroke:none"
         id="path100" /><path
         d="m 2324.39,36.8398 c 0.58,-20.3085 2.9,-26.3984 9.86,-28.14058 4.64,-1.16016 10.44,-1.44922 12.77,-1.44922 1.15,0 2.03,-0.87109 2.03,-2.03125 0,-1.44922 -1.75,-2.02734 -4.65,-2.02734 -14.5,0 -24.65,0.86718 -26.97,0.86718 -2.32,0 -13.05,-0.86718 -24.66,-0.86718 -2.61,0 -4.06,0.28906 -4.06,2.02734 0,1.16016 0.87,2.03125 2.03,2.03125 2.03,0 6.67,0.28906 10.44,1.44922 6.38,1.74218 7.26,8.41018 7.26,30.74998 V 180.715 c 0,9.859 1.45,12.473 3.48,12.473 2.9,0 7.25,-4.93 9.86,-7.543 4.06,-4.059 41.19,-43.512 80.64,-84.122 25.24,-26.1011 52.5,-55.4019 60.33,-63.523 l -2.61,123.57 c -0.29,15.953 -1.74,21.465 -9.57,22.918 -4.64,0.867 -10.44,1.157 -12.47,1.157 -1.74,0 -2.04,1.449 -2.04,2.324 0,1.449 2.04,1.738 4.94,1.738 11.6,0 23.79,-0.582 26.69,-0.582 2.9,0 11.31,0.582 21.75,0.582 2.61,0 4.64,-0.289 4.64,-1.738 0,-0.875 -1.16,-2.324 -2.9,-2.324 -1.16,0 -3.19,0 -6.09,-0.579 -8.42,-1.742 -9,-6.671 -9,-21.468 l -0.57,-144.4496 c 0,-16.24996 -0.3,-17.69918 -2.03,-17.69918 -2.62,0 -5.23,2.03125 -19.44,15.08208 -2.61,2.3281 -39.45,38.5859 -66.42,66.7226 -29.59,31.0311 -58.31,61.2031 -66.14,69.9061 l 2.9,-116.3202"
         style="fill:#264391;fill-opacity:1;fill-rule:nonzero;stroke:none"
         id="path102" /><path
         d="m 2640.78,42.6406 c 0.58,-23.7812 3.48,-31.332 11.31,-33.65232 5.51,-1.44922 11.89,-1.73828 14.5,-1.73828 1.45,0 2.33,-0.57812 2.33,-1.73828 0,-1.74219 -1.75,-2.32031 -5.23,-2.32031 -16.53,0 -28.13,0.86718 -30.75,0.86718 -2.6,0 -14.79,-0.86718 -27.84,-0.86718 -2.9,0 -4.64,0.28906 -4.64,2.32031 0,1.16016 0.87,1.73828 2.32,1.73828 2.32,0 7.54,0.28906 11.89,1.73828 7.25,2.04302 8.7,10.45312 8.7,36.84372 l 0.29,166.211 c 0,11.312 0.88,14.504 3.2,14.504 2.31,0 7.25,-6.379 10.15,-9.281 4.35,-4.93 47.57,-51.637 92.24,-99.496 28.71,-30.7505 60.33,-66.1333 69.62,-75.7114 l -3.2,147.3594 c -0.28,18.852 -2.32,25.234 -11.31,27.555 -5.22,1.16 -11.89,1.449 -14.21,1.449 -2.03,0 -2.32,0.871 -2.32,2.031 0,1.742 2.32,2.031 5.8,2.031 13.05,0 26.98,-0.867 30.17,-0.867 3.19,0 12.76,0.867 24.65,0.867 3.2,0 5.22,-0.289 5.22,-2.031 0,-1.16 -1.16,-2.031 -3.19,-2.031 -1.45,0 -3.48,0 -6.96,-0.867 -9.57,-2.032 -10.73,-8.414 -10.73,-25.817 l -0.58,-169.9763 c 0,-19.15232 -0.58,-20.60154 -2.61,-20.60154 -2.32,0 -5.8,3.1914 -21.18,18.57034 -3.19,2.8984 -44.96,45.539 -75.71,78.6054 -33.64,36.2581 -66.42,72.8051 -75.7,83.2501 l 3.77,-138.9454"
         style="fill:#264391;fill-opacity:1;fill-rule:nonzero;stroke:none"
         id="path104" /><path
         d="m 2877.71,118.348 c 0,38.293 0,45.25 -0.59,53.082 -0.58,8.414 -2.03,12.476 -10.44,13.636 -2.03,0.289 -6.38,0.579 -8.7,0.579 -0.87,0 -2.03,1.16 -2.03,2.031 0,1.449 1.16,2.031 4.06,2.031 11.6,0 28.14,-0.582 29.59,-0.582 1.74,0 55.11,-0.285 60.91,0 4.93,0.293 9.57,1.164 11.6,1.449 1.17,0.293 2.32,1.164 3.49,1.164 0.86,0 1.16,-1.164 1.16,-2.32 0,-1.742 -1.45,-4.645 -2.03,-11.605 -0.3,-2.321 -0.87,-13.34 -1.45,-16.243 -0.3,-1.16 -1.17,-2.609 -2.32,-2.609 -1.45,0 -2.03,1.16 -2.03,3.187 0,1.743 -0.3,5.805 -1.45,8.707 -1.75,4.055 -4.35,5.801 -18.28,7.54 -4.35,0.578 -33.94,0.867 -36.84,0.867 -1.16,0 -1.45,-0.867 -1.45,-2.606 v -67.008 c 0,-1.742 0,-2.613 1.45,-2.613 3.19,0 36.84,0 42.64,0.582 6.09,0.582 9.86,0.867 12.48,3.481 1.73,1.738 2.9,3.187 3.77,3.187 0.86,0 1.45,-0.574 1.45,-2.023 0,-1.453 -1.45,-5.512 -2.04,-13.637 -0.58,-4.9297 -1.15,-14.2109 -1.15,-15.9531 0,-2.0313 -0.58,-4.6406 -2.33,-4.6406 -1.15,0 -1.74,0.871 -1.74,2.3203 0,2.3203 0,4.9297 -1.16,8.1211 -0.87,3.4804 -3.19,6.3789 -13.05,7.5429 -6.96,0.8672 -34.23,1.1563 -38.58,1.1563 -1.45,0 -1.74,-0.8672 -1.74,-1.7383 V 74.8398 c 0,-8.414 -0.29,-37.1289 0,-42.0585 0.58,-16.543 5.22,-19.7227 30.46,-19.7227 6.67,0 18.85,0 25.52,2.6016 6.67,2.8984 10.16,7.25 11.61,17.1211 0.58,2.8984 1.16,3.7695 2.61,3.7695 1.45,0 1.74,-2.0313 1.74,-3.7695 0,-1.7422 -2.03,-18.5704 -3.48,-23.79302 -1.74,-6.3789 -4.36,-6.3789 -14.22,-6.3789 -19.14,0 -33.93,0.58203 -44.38,0.87109 -10.73,0.57812 -17.4,0.57812 -21.17,0.57812 -0.58,0 -5.51,0 -11.03,-0.28906 -4.93,-0.28906 -10.73,-0.57812 -14.79,-0.57812 -2.61,0 -4.06,0.57812 -4.06,2.02734 0,0.87109 0.58,2.03125 2.03,2.03125 2.32,0 5.51,0.87109 7.83,1.16016 4.93,0.87109 5.51,5.80074 6.67,13.05074 1.46,10.1602 1.46,29.5899 1.46,53.3789 v 43.5082"
         style="fill:#264391;fill-opacity:1;fill-rule:nonzero;stroke:none"
         id="path106" /><path
         d="m 3093.18,74.8398 c 0,-23.789 0,-43.2187 1.17,-53.3789 0.86,-7.25 2.03,-11.89059 9.86,-13.05074 3.48,-0.57813 9.28,-1.16016 11.6,-1.16016 1.74,0 2.03,-1.16016 2.03,-2.03125 0,-1.16016 -1.16,-2.02734 -4.06,-2.02734 -13.93,0 -30.17,0.86718 -31.62,0.86718 -1.16,0 -18.85,-0.86718 -26.4,-0.86718 -2.9,0 -4.06,0.57812 -4.06,2.02734 0,0.87109 0.59,1.74219 2.04,1.74219 2.31,0 5.22,0.57812 7.54,1.16015 5.21,1.16016 6.67,6.08981 7.54,13.33981 1.16,10.1602 1.16,29.5899 1.16,53.3789 V 178.395 l -36.84,-0.582 c -15.95,-0.29 -22.05,-2.032 -25.82,-7.833 -2.9,-4.351 -3.19,-6.089 -4.06,-7.832 -0.58,-2.027 -1.45,-2.32 -2.61,-2.32 -0.58,0 -1.74,0.582 -1.74,2.031 0,2.614 4.93,24.661 5.51,26.688 0.29,1.449 1.74,4.641 2.61,4.641 1.74,0 4.35,-2.032 11.31,-2.899 7.26,-0.871 17.12,-1.164 20.02,-1.164 h 96.31 c 8.41,0 14.21,0.582 18.27,1.164 3.77,0.578 6.09,1.156 7.25,1.156 1.16,0 1.16,-1.449 1.16,-2.898 0,-7.543 -0.87,-25.238 -0.87,-28.137 0,-2.031 -1.16,-3.195 -2.33,-3.195 -1.15,0 -1.73,0.875 -2.02,4.355 l -0.29,2.61 c -0.87,7.543 -6.39,13.054 -30.75,13.633 l -31.91,0.582 V 74.8398"
         style="fill:#264391;fill-opacity:1;fill-rule:nonzero;stroke:none"
         id="path108" /><path
         d="m 3380.31,39.7383 h 1.15 c 6.39,20.3047 29.3,91.6637 38.3,123.2847 2.61,9.282 2.9,12.184 2.9,15.372 0,4.347 -2.03,7.25 -13.64,7.25 -1.44,0 -2.31,1.449 -2.31,2.324 0,1.156 1.15,1.738 4.34,1.738 13.06,0 23.79,-0.582 26.1,-0.582 1.75,0 12.77,0.582 20.6,0.582 2.32,0 3.49,-0.582 3.49,-1.449 0,-1.164 -0.59,-2.613 -2.33,-2.613 -0.87,0 -5.8,-0.29 -8.7,-1.157 -7.54,-2.613 -11.6,-12.476 -16.53,-26.109 C 3422.37,127.051 3397.13,48.7305 3386.98,21.1797 3380.31,2.89844 3378.86,0 3375.96,0 c -2.61,0 -4.93,3.19141 -8.41,12.7617 L 3317.66,147.938 C 3308.96,126.469 3274.43,35.9688 3265.15,13.0586 3260.8,2.60938 3259.06,0 3256.16,0 c -2.62,0 -4.65,2.60938 -9.86,19.4414 l -45.26,146.1876 c -4.06,13.059 -6.66,16.246 -13.33,18.566 -3.49,1.16 -9.87,1.45 -11.61,1.45 -1.16,0 -2.32,0.875 -2.32,2.324 0,1.156 1.74,1.738 4.06,1.738 13.34,0 27.56,-0.582 30.17,-0.582 2.32,0 13.92,0.582 26.69,0.582 3.47,0 4.64,-0.582 4.64,-1.738 0,-1.449 -1.46,-2.324 -2.61,-2.324 -2.03,0 -6.1,0 -9,-1.45 -1.73,-0.582 -3.48,-2.031 -3.48,-5.222 0,-3.192 2.03,-11.891 4.93,-22.914 4.06,-15.664 30.17,-106.1684 33.36,-116.3207 h 0.59 l 53.36,138.0747 c 3.77,9.863 5.51,11.312 6.97,11.312 1.74,0 3.77,-3.187 6.96,-11.602 l 49.89,-137.7847"
         style="fill:#264391;fill-opacity:1;fill-rule:nonzero;stroke:none"
         id="path110" /><path
         d="m 3568.77,10.1602 c 22.92,0 69.04,12.1796 69.04,83.5351 0,59.1717 -35.97,90.2107 -76.28,90.2107 -42.65,0 -73.39,-26.691 -73.39,-80.351 0,-57.4339 34.51,-93.3948 80.63,-93.3948 z m -5.8,183.0278 c 57.44,0 100.95,-35.098 100.95,-92.536 C 3663.92,45.5391 3623.02,0 3561.53,0 c -69.91,0 -99.79,52.5039 -99.79,96.8828 0,39.7422 30.75,96.3052 101.23,96.3052"
         style="fill:#264391;fill-opacity:1;fill-rule:nonzero;stroke:none"
         id="path112" /><path
         d="m 3727.68,97.4648 c 0,-1.4492 0.59,-2.3203 1.75,-3.1914 3.77,-2.0273 16.82,-3.7695 28.13,-3.7695 6.1,0 13.05,0.2891 19.14,4.3477 8.71,5.8004 15.38,18.8594 15.38,37.7114 0,30.746 -16.82,48.441 -44.09,48.441 -7.55,0 -15.66,-0.867 -18.28,-1.449 -1.15,-0.582 -2.03,-1.45 -2.03,-2.899 z m -22.04,20.8832 c 0,38.293 0,45.25 -0.58,53.082 -0.58,8.414 -2.03,12.476 -10.45,13.636 -2.03,0.289 -6.37,0.579 -8.7,0.579 -0.87,0 -2.03,1.16 -2.03,2.031 0,1.449 1.16,2.031 4.06,2.031 11.61,0 28.73,-0.582 30.17,-0.582 2.62,0 24.08,0.582 31.91,0.582 16.24,0 34.23,-1.449 47.57,-10.734 6.38,-4.641 17.7,-16.532 17.7,-33.645 0,-18.277 -7.55,-35.973 -31.33,-56.2772 20.88,-26.1055 38.57,-48.4414 53.37,-63.8125 13.63,-13.9297 22.05,-16.25002 28.43,-17.11721 4.93,-0.87109 7.54,-0.87109 8.99,-0.87109 1.45,0 2.33,-1.16016 2.33,-2.03125 0,-1.44922 -1.46,-2.02734 -6.1,-2.02734 h -15.96 c -14.5,0 -20.88,1.44922 -27.26,4.92968 -11.03,5.80861 -20.3,17.69921 -34.81,36.25781 -10.73,13.3438 -22.05,29.3008 -27.55,35.9727 -1.17,1.1562 -1.74,1.4492 -3.49,1.4492 l -32.48,0.582 c -1.16,0 -1.75,-0.582 -1.75,-2.0312 v -5.8008 c 0,-23.7891 0,-42.9297 1.16,-53.0899 0.87,-7.25 2.33,-11.89059 10.16,-13.05074 3.48,-0.57813 8.99,-1.16016 11.31,-1.16016 1.74,0 2.03,-1.16016 2.03,-2.03125 0,-1.16016 -1.16,-2.02734 -4.06,-2.02734 -13.92,0 -30.17,0.86718 -31.33,0.86718 -0.28,0 -17.4,-0.86718 -25.24,-0.86718 -2.6,0 -4.06,0.57812 -4.06,2.02734 0,0.87109 0.59,2.03125 2.03,2.03125 2.33,0 5.52,0.58203 7.83,1.16016 4.94,1.16015 5.52,5.80074 6.67,13.05074 1.46,10.1602 1.46,29.5899 1.46,53.3789 v 43.5082"
         style="fill:#264391;fill-opacity:1;fill-rule:nonzero;stroke:none"
         id="path114" /><path
         d="m 3888.92,118.348 c 0,38.293 0,45.25 -0.58,53.082 -0.58,8.414 -2.03,12.476 -10.44,13.636 -2.04,0.289 -6.38,0.579 -8.71,0.579 -0.86,0 -2.03,1.16 -2.03,2.031 0,1.449 1.17,2.031 4.07,2.031 11.6,0 27.26,-0.582 28.72,-0.582 2.31,0 17.69,0.582 25.23,0.582 2.9,0 4.06,-0.582 4.06,-2.031 0,-0.871 -0.87,-2.031 -2.03,-2.031 -1.74,0 -3.19,0 -6.38,-0.579 -6.67,-1.453 -8.41,-4.929 -8.99,-13.636 -0.59,-7.832 -0.59,-14.789 -0.59,-53.082 v -14.793 h 1.17 c 4.06,4.644 49.6,49.605 59.17,59.468 7.25,7.25 13.92,13.633 13.92,17.692 0,3.191 -1.16,4.64 -3.19,4.93 -1.45,0.293 -2.32,1.449 -2.32,2.324 0,1.156 1.17,1.738 2.91,1.738 5.21,0 13.04,-0.582 19.14,-0.582 1.45,0 18.28,0.582 24.65,0.582 2.61,0 3.77,-0.582 3.77,-1.738 0,-1.164 -0.57,-2.031 -2.6,-2.031 -3.77,0 -9.29,-1.45 -14.22,-3.481 -10.44,-4.644 -15.37,-10.152 -26.68,-20.887 -6.39,-5.804 -49.89,-47.57 -55.41,-53.664 6.68,-7.254 59.75,-60.3357 70.19,-69.906 21.48,-19.1406 24.38,-22.3398 36.56,-27.2695 6.67,-2.60941 13.92,-3.4805 15.66,-3.4805 1.74,0 3.19,-0.87109 3.19,-2.03125 0,-1.16016 -1.16,-2.02734 -5.51,-2.02734 h -13.05 c -7.26,0 -11.9,0 -17.7,0.57812 -13.34,1.16016 -20.02,6.67187 -31.03,15.08987 -11.6,8.9922 -65.28,65.5547 -77.45,80.0586 h -1.17 V 74.8398 c 0,-23.789 0,-43.2187 1.17,-53.3789 0.87,-7.25 2.03,-11.89059 9.86,-13.05074 3.48,-0.57813 7.54,-1.16016 9.86,-1.16016 1.45,0 2.03,-1.16016 2.03,-2.03125 0,-1.16016 -1.16,-2.02734 -4.06,-2.02734 -12.47,0 -27.85,0.86718 -29.88,0.86718 -2.03,0 -17.4,-0.86718 -25.23,-0.86718 -2.61,0 -4.07,0.57812 -4.07,2.02734 0,0.87109 0.59,2.03125 2.03,2.03125 2.33,0 5.52,0.58203 7.84,1.16016 4.93,1.16015 5.51,5.80074 6.67,13.05074 1.45,10.1602 1.45,29.5899 1.45,53.3789 v 43.5082"
         style="fill:#264391;fill-opacity:1;fill-rule:nonzero;stroke:none"
         id="path116" /><path
         d="m 2011.43,788.75 24.74,-61.191 c 0.65,-1.485 0.75,-2.844 0.28,-3.981 -0.48,-1.18 -1.57,-1.961 -2.45,-2.34 -0.2,-0.097 -0.43,-0.148 -0.6,-0.246 -0.86,-0.406 -1.66,-0.781 -1.66,-2.219 0,-2.015 3.34,-2.214 8.38,-2.496 l 2.01,-0.097 c 12.36,-0.375 27.85,-0.629 43.63,-0.629 2.09,0 6.95,0.304 6.95,2.894 0,1.989 -2.15,2.899 -4.14,2.899 -2.16,0 -6.41,0.199 -10.74,1.531 -6.42,2.016 -13.47,5.891 -23.08,28.77 -8.76,20.843 -24.75,60.238 -38.85,94.976 -13.36,32.926 -24.91,61.344 -27.38,66.856 -0.56,1.211 -1.06,2.343 -1.51,3.347 -1.81,4.078 -2.97,6.746 -5.72,6.746 -2.39,0 -3.77,-2.09 -7.22,-10.773 l -64.9,-166.785 c -5.73,-14.473 -11.02,-22.578 -22.62,-24.039 -2.27,-0.328 -6.27,-0.629 -8.08,-0.629 -1.54,0 -3.23,-1.188 -3.23,-2.899 0,-2.894 4.41,-2.894 6.07,-2.894 7.53,0 16.19,0.402 21.95,0.703 2.77,0.129 5.01,0.254 5.94,0.254 1.26,0 4.58,-0.176 8.36,-0.375 5.58,-0.254 12.51,-0.582 16.39,-0.582 3.97,0 4.81,1.562 4.81,2.894 0,1.336 -0.61,2.899 -3.51,2.899 h -2.54 c -2.04,0 -8.71,0.476 -8.71,6.515 0,4.481 1.46,10.899 4.03,17.618 l 15.71,42.644 c 0.6,1.512 1.41,1.738 2.14,1.738 h 63.63 c 1.33,0 1.38,-0.152 1.92,-1.109 m -5.95,13.52 h -55.83 c -0.2,0 -0.27,0 -0.3,0.027 -0.05,0.094 -0.1,0.348 0.03,0.902 l 25.7,73.051 c 0.98,2.516 1.63,2.617 1.71,2.617 0.08,0 0.73,-0.101 1.68,-2.617 l 27.27,-72.996 c 0.17,-0.711 0.17,-0.934 0.17,-0.957 0,0 -0.1,-0.027 -0.43,-0.027 m -204.8,110.527 c 1.79,0 5.14,-0.301 8.34,-0.934 5.46,-1.156 7.6,-4.754 8.23,-13.769 0.63,-8.43 0.63,-15.906 0.63,-57.364 v -47.019 c 0,-20.441 -0.2,-45.457 -1.59,-57.617 -0.9,-7.656 -1.81,-12.364 -6.67,-13.547 -2.41,-0.574 -5.86,-1.203 -8.28,-1.203 -1.91,0 -2.89,-1.492 -2.89,-2.871 0,-2.922 3.82,-2.922 5.08,-2.922 5.94,0 16.19,0.453 22.28,0.726 2.64,0.106 4.53,0.231 4.98,0.231 0.28,0 1.36,-0.047 3.05,-0.125 5.84,-0.25 19.48,-0.832 31.46,-0.832 4.43,0 5.09,1.789 5.09,2.922 0,1.379 -1.03,2.871 -2.9,2.871 -2.54,0 -8.46,0.652 -12.43,1.254 -7.6,1.16 -8.51,5.695 -9.44,13.496 -1.24,10.949 -1.24,31.539 -1.24,57.617 v 47.019 c 0,41.458 0,48.934 0.31,57.391 0.6,9.266 2.03,12.586 9.13,14.047 3.07,0.629 4.86,0.629 6.78,0.629 1.33,0 2.92,1.562 2.92,2.894 0,2.571 -2.6,2.868 -5.12,2.868 -6.11,0 -17.29,-0.274 -23.28,-0.477 -2.37,-0.074 -3.98,-0.121 -4.33,-0.121 -0.43,0 -2.26,0.07 -4.78,0.121 -6.24,0.203 -16.69,0.477 -23.11,0.477 -2.51,0 -5.06,-0.297 -5.06,-2.868 0,-1.332 1.24,-2.894 2.84,-2.894 M 825.43,712.082 c 31.718,0 60.39,11.473 80.804,32.27 19.735,20.16 30.606,47.597 30.606,77.273 0,30.055 -10.899,55.578 -31.488,73.828 -19.661,17.344 -47.477,26.91 -78.336,26.91 -75.965,0 -110.153,-61.293 -110.153,-104.816 0,-26.152 9.391,-51.981 25.754,-70.832 19.684,-22.629 48.328,-34.633 82.813,-34.633 m 0,198.824 c 22.175,0 42.418,-8.703 57.09,-24.539 16.164,-17.441 24.722,-42.465 24.722,-72.265 0,-33.481 -9.367,-58.254 -27.765,-73.579 -17.469,-14.472 -38.11,-16.062 -46.192,-16.062 -24.34,0 -46.293,9.59 -61.769,26.984 -16.133,18.172 -24.696,43.524 -24.696,73.301 0,53.945 29.375,86.16 78.61,86.16 m 283.49,1.891 c 2.44,0 7.17,-0.328 9.31,-0.606 8.33,-1.179 10.04,-5.308 10.67,-14.097 0.66,-8.457 0.66,-15.93 0.66,-57.364 v -39.191 c 0,-42.34 13.01,-59.859 24.39,-70.43 13.24,-12.414 33.28,-19.027 57.84,-19.027 16.47,0 37.94,2.234 58.15,19.602 23.03,19.738 25.98,53.394 25.98,80.527 v 28.519 c 0,12.911 -0.06,22.579 -0.06,29.903 -0.07,16.187 -0.09,21.648 0.33,27.461 0.63,8.562 2.09,12.613 9.19,14.097 3.38,0.606 4.88,0.606 6.75,0.606 1.66,0 2.89,1.562 2.89,2.894 0,2.571 -2.56,2.899 -5.06,2.899 -5.54,0 -13.29,-0.281 -18.42,-0.481 -2.42,-0.078 -4.21,-0.148 -4.81,-0.148 -0.4,0 -1.79,0.047 -3.93,0.121 -5.89,0.203 -16.84,0.508 -25.85,0.508 -2.52,0 -5.08,-0.328 -5.08,-2.899 0,-1.332 1.26,-2.894 2.87,-2.894 2.44,0 7.14,-0.328 9.31,-0.606 8.43,-1.179 10.07,-5.457 10.39,-14.07 l 0.03,-0.578 c 0.3,-8.406 0.6,-16.313 0.6,-56.813 v -33.554 c 0,-23.684 -1.88,-47.875 -15.55,-64.11 -9.52,-11.48 -25.65,-18.605 -42.09,-18.605 -15.78,0 -27.46,2.363 -40.6,14.297 -10.47,9.344 -20.16,23.617 -20.16,64.695 v 37.277 c 0,41.434 0,48.907 0.62,57.364 0.63,8.609 2.09,12.918 8.84,14.097 3.4,0.606 4.89,0.606 6.77,0.606 1.56,0 3.2,1.484 3.2,2.894 0,2.899 -3.93,2.899 -5.39,2.899 -5.23,0 -14.17,-0.281 -20.69,-0.43 -3.57,-0.105 -6.32,-0.199 -7.22,-0.199 -0.78,0 -2.87,0.07 -5.82,0.148 -6.42,0.176 -17.17,0.481 -25.85,0.481 -2.52,0 -5.11,-0.328 -5.11,-2.899 0,-1.332 1.59,-2.894 2.9,-2.894 m 491.07,-191.453 c -2.69,0 -9.92,0 -17.59,2.465 -11.33,3.75 -12.86,18.875 -13.67,26.984 l -18.83,163.742 c -0.8,6.469 -3.04,7.828 -4.78,7.828 -2.42,0 -3.86,-2.465 -5.04,-4.785 l -79.62,-163.965 -82.78,164.293 c -1.92,3.852 -4.76,4.457 -6.27,4.457 -1.97,0 -3.48,-2.09 -3.86,-5.336 l -20.03,-174.039 c -0.1,-0.832 -0.2,-1.738 -0.33,-2.539 -1.06,-9.039 -1.98,-16.84 -9.76,-18.203 l -0.54,-0.051 c -3.64,-0.578 -5.48,-0.851 -7.52,-0.851 -1.91,0 -3.5,-1.188 -3.5,-2.547 0,-3.246 4.08,-3.246 5.41,-3.246 4.76,0 11.84,0.375 17,0.629 2.97,0.175 5.28,0.328 6.16,0.328 0.71,0 2.47,-0.125 4.91,-0.254 5.49,-0.301 13.75,-0.703 20.84,-0.703 1.54,0 5.72,0 5.72,3.246 0,1.308 -1.64,2.547 -2.9,2.547 -0.78,0 -4.98,0.074 -10.52,1.554 -2.74,0.606 -6.04,2.344 -6.04,6.848 0,4.383 0,9.363 0.33,13.395 l 10.62,119.793 h 0.12 c 3.48,-7.985 14.91,-31.344 24.15,-50.172 4.32,-8.832 8.25,-16.887 10.82,-22.199 6.74,-14.071 24.89,-48.227 32.29,-61.797 5.39,-9.766 7.08,-12.61 10.02,-12.61 3,0 4.66,2.77 10.37,14.524 l 65.93,134.922 13.01,-133.438 c 0.7,-5.664 0.03,-8.484 -0.73,-8.684 -1.46,-0.3 -2.39,-1.46 -2.39,-2.82 0,-2.012 2.21,-2.945 8.46,-3.547 10.19,-0.957 41,-1.562 47.12,-1.562 3.85,0 6.34,1.285 6.34,3.246 0,1.512 -1.16,2.547 -2.92,2.547 M 620.684,711.148 c 18.629,0 43.296,1.915 56.714,7.297 5.887,2.618 6.622,3.426 8.532,9.52 3.172,10.793 6.945,37.98 6.945,40.344 0,3.449 -1.055,5.418 -2.895,5.418 -2.664,0 -3.218,-2.219 -3.824,-5.289 -0.929,-5.563 -4.961,-19.204 -11.429,-25.977 -13.239,-13.617 -33.805,-15.453 -54.043,-15.453 -31.387,0 -60.258,12.277 -81.254,34.656 -19.86,21.172 -31.239,50.094 -31.239,79.395 0,26.933 3.325,57.668 27.993,81.379 15.707,15.23 39.168,22.656 71.636,22.656 28.746,0 52.008,-8.887 62.278,-17.719 7.722,-6.551 12.91,-19.184 12.91,-31.418 0,-3.422 0,-7.301 3.199,-7.301 2.82,0 3.246,3.274 3.523,7.25 0.153,1.965 0.227,6.219 0.329,11.102 0.097,6.746 0.25,15.203 0.629,21.195 0.351,6.871 0.878,11 1.207,13.668 0.199,1.738 0.378,2.918 0.378,3.926 0,2.668 -1.382,3.851 -4.757,4.152 -9.817,0.606 -19.735,2.442 -31.289,4.582 l -0.629,0.102 c -18.473,3.398 -38.035,3.773 -45.586,3.773 -41.961,0 -73.403,-11.023 -96.129,-33.777 -26.055,-26.031 -35.317,-61.547 -35.317,-86.09 0,-39.219 12.836,-70.605 38.157,-93.332 25.855,-23.234 58.902,-34.059 103.961,-34.059 m 473.886,11.504 c 2.19,7.852 4.1,23.911 4.1,26.805 0,1.211 0,4.836 -2.57,4.836 -1.78,0 -3.12,-1.563 -3.55,-4.031 -1,-5.735 -3.35,-11.098 -6.44,-14.727 -6.11,-7.347 -17.42,-7.93 -32.67,-7.93 -21.12,0 -31.97,1.844 -36.22,6.071 -4.89,4.605 -5.42,21.644 -5.42,59.406 v 47.648 c 0,41.458 0,48.934 0.3,57.364 0.66,9.367 2.22,12.918 9.75,14.402 3.02,0.301 7.14,0.606 9.01,0.606 1.28,0 2.89,1.203 2.89,2.589 0,2.899 -3.82,2.899 -5.08,2.899 -6.15,0 -18.81,-0.305 -25.6,-0.508 -2.65,-0.074 -4.48,-0.121 -4.832,-0.121 -0.406,0 -1.867,0.047 -4.054,0.121 -6.317,0.18 -18.024,0.508 -27.313,0.508 -2.492,0 -5.086,-0.328 -5.086,-2.899 0,-1.332 1.59,-2.894 2.899,-2.894 2.464,0 7.171,-0.301 9.308,-0.629 8.336,-1.156 10.047,-4.684 10.676,-14.074 0.652,-8.43 0.652,-15.906 0.652,-57.364 v -47.019 c 0,-26.078 0,-46.668 -1.586,-57.617 l -0.097,-0.735 c -1.157,-7.296 -1.864,-11.679 -6.594,-12.812 -2.371,-0.574 -5.738,-1.203 -8.258,-1.203 -1.914,0 -2.922,-1.492 -2.922,-2.899 0,-2.894 3.828,-2.894 5.114,-2.894 4.328,0 10.293,0.304 16.003,0.629 3.528,0.203 7.301,0.328 11.258,0.328 6.292,0 13.162,-0.199 21.922,-0.43 l 8.16,-0.199 c 13.16,-0.656 28.41,-0.957 48,-0.957 14.93,0 16.21,0.957 18.25,7.73 m 673.27,52.231 c 0,28.043 -24.6,48.426 -47.9,55.828 14.97,13.367 27.2,26.281 27.2,46.441 0,3.422 -0.85,15.485 -11.95,26.157 -10.5,10.144 -26.25,15.281 -46.77,15.281 -7.48,0 -15.1,-0.231 -21.25,-0.383 -4.45,-0.125 -8.28,-0.246 -11.02,-0.246 -0.43,0 -1.91,0.047 -4.13,0.121 -6.49,0.203 -18.6,0.508 -27.86,0.508 -2.52,0 -5.09,-0.328 -5.09,-2.899 0,-1.332 1.54,-2.265 2.9,-2.265 2.44,0 7.15,-0.324 9.31,-0.629 8.33,-1.133 10.04,-5.461 10.67,-14.703 0.63,-8.457 0.63,-15.93 0.63,-57.364 v -47.019 c 0,-26.078 0,-46.668 -1.56,-57.617 l -0.2,-1.235 c -1.08,-7.046 -1.89,-12.082 -6.42,-12.886 -0.93,-0.102 -1.99,-0.328 -3.12,-0.532 -1.81,-0.351 -3.73,-0.703 -5.26,-0.703 -2.59,0 -2.89,-1.613 -2.89,-2.265 0,-2.922 3.85,-2.922 5.1,-2.922 4.48,0 11.26,0.328 16.62,0.605 4.23,0 8.2,0.199 10.07,0.274 0.65,0.031 1.05,0.078 1.23,0.078 0.75,0 3.87,-0.125 8.25,-0.301 2.83,-0.105 6.15,-0.254 9.57,-0.328 8.56,-0.629 18.71,-0.957 23.86,-0.957 21.96,0 40.2,6.445 52.79,18.676 11.1,10.754 17.22,25.402 17.22,41.285 M 1667.8,905.348 c 0,1.004 0.43,1.507 2.9,2.136 4.28,0.911 10.67,1.262 13.99,1.262 26.36,0 38.17,-21.246 38.17,-42.266 0,-10.949 -3.53,-20.441 -10.48,-28.093 -5.51,-6.117 -11.3,-6.668 -26.45,-6.668 -6.95,0 -12.77,0.453 -16.79,1.234 -0.78,0.227 -1.34,0.453 -1.34,2.164 z m 33.21,-179.625 c -7.25,0 -17.22,0.629 -23.87,3.695 -7.88,3.805 -8.08,6.621 -8.93,18.453 l -0.08,1.059 c -0.33,4.054 -0.33,35.742 -0.33,56.683 v 14.727 c 0,1.207 0.66,1.207 0.86,1.207 12.03,0 19.28,-0.199 21.52,-0.602 1.54,-0.277 3.15,-0.523 4.88,-0.73 5.9,-0.727 12.51,-1.586 19.64,-6.067 24.79,-15.781 26.05,-42.765 26.05,-48.023 0,-18.43 -6.9,-40.402 -39.74,-40.402"
         style="fill:#264391;fill-opacity:1;fill-rule:nonzero;stroke:none"
         id="path118" /><path
         d="m 2207.76,745.684 c -30.59,27.437 -38.16,63.406 -38.16,93.363 0,21.168 7.25,58.07 35.31,86.113 18.96,18.957 47.65,33.781 96.21,33.781 12.64,0 30.31,-0.957 45.74,-3.804 12,-2.188 22.1,-4.078 32.19,-4.731 3.47,-0.304 4.13,-1.558 4.13,-3.449 0,-2.516 -0.96,-6.316 -1.61,-17.672 -0.63,-10.418 -0.63,-27.785 -0.93,-32.492 -0.33,-4.762 -0.96,-6.621 -2.85,-6.621 -2.18,0 -2.49,2.187 -2.49,6.621 0,12.285 -5.06,25.242 -13.29,32.168 -11.02,9.492 -35.32,17.996 -63.08,17.996 -41.94,0 -61.52,-12.332 -72.54,-23.055 -23.06,-22.078 -28.42,-50.144 -28.42,-82.285 0,-60.289 46.39,-115.488 113.9,-115.488 23.66,0 42.26,2.84 54.87,15.754 6.65,6.949 10.73,20.84 11.68,26.504 0.63,3.476 1.26,4.734 3.15,4.734 1.61,0 2.24,-2.187 2.24,-4.734 0,-2.211 -3.8,-29.653 -6.95,-40.375 -1.88,-5.992 -2.51,-6.621 -8.2,-9.133 -12.64,-5.063 -36.63,-7.277 -56.79,-7.277 -47.32,0 -79.16,11.679 -104.11,34.082"
         style="fill:#264391;fill-opacity:1;fill-rule:nonzero;stroke:none"
         id="path120" /><path
         d="m 2468.29,793.324 c 0,-39.418 0.63,-55.531 5.66,-60.261 4.46,-4.43 15.16,-6.321 36.9,-6.321 14.56,0 26.81,0.328 33.46,8.207 3.47,4.129 5.69,9.766 6.62,15.129 0.33,1.891 1.26,3.473 2.84,3.473 1.28,0 1.89,-1.231 1.89,-4.078 0,-2.844 -1.89,-18.93 -4.1,-26.832 -1.87,-6.317 -2.85,-7.25 -17.67,-7.25 -19.87,0 -35.32,0.328 -48.26,0.933 -12.61,0.324 -22.08,0.653 -30.28,0.653 -1.26,0 -5.99,0 -11.35,-0.329 -5.66,-0.324 -11.68,-0.601 -16.08,-0.601 -2.85,0 -4.44,0.601 -4.44,2.191 0,0.926 0.63,2.188 2.22,2.188 2.51,0 5.97,0.652 8.5,1.285 5.37,1.258 6,6.293 7.26,14.223 1.58,11.023 1.58,32.14 1.58,57.992 v 47.324 c 0,41.684 0,49.234 -0.63,57.742 -0.65,9.16 -2.21,13.543 -11.35,14.824 -2.19,0.329 -6.95,0.633 -9.46,0.633 -0.96,0 -2.2,1.258 -2.2,2.215 0,1.59 1.24,2.215 4.38,2.215 12.62,0 29.98,-0.625 31.57,-0.625 1.26,0 22.08,0.625 30.61,0.625 2.82,0 4.41,-0.625 4.41,-2.215 0,-0.957 -1.26,-1.914 -2.22,-1.914 -1.87,0 -5.97,-0.301 -9.14,-0.605 -8.2,-1.61 -9.77,-5.688 -10.42,-15.153 -0.3,-8.508 -0.3,-16.058 -0.3,-57.742 v -47.926"
         style="fill:#264391;fill-opacity:1;fill-rule:nonzero;stroke:none"
         id="path122" /><path
         d="m 2627.86,793.934 c 0,-25.825 0,-46.965 1.29,-58.047 0.93,-7.875 1.89,-12.91 10.09,-14.192 4.08,-0.632 10.1,-1.261 12.61,-1.261 1.59,0 2.22,-1.258 2.22,-2.215 0,-1.258 -1.29,-2.188 -4.44,-2.188 -15.45,0 -33.42,0.93 -34.68,0.93 -1.59,0 -18.95,-0.93 -27.46,-0.93 -2.85,0 -4.41,0.629 -4.41,2.188 0,0.957 0.63,2.215 2.19,2.215 2.52,0 5.99,0.629 8.51,1.261 5.36,1.282 6.32,6.317 7.25,14.192 1.26,11.082 1.59,32.222 1.59,58.047 v 47.351 c 0,41.637 0,49.184 -0.63,57.719 -0.63,9.137 -2.85,13.238 -8.84,14.519 -3.15,0.606 -6.62,0.934 -8.51,0.934 -1.26,0 -2.21,1.262 -2.21,2.219 0,1.531 1.28,2.211 4.43,2.211 9.14,0 26.5,-0.68 28.09,-0.68 1.26,0 19.23,0.68 27.74,0.68 3.17,0 4.43,-0.68 4.43,-2.211 0,-0.957 -1.26,-2.219 -2.22,-2.219 -1.86,0 -3.8,0 -6.95,-0.605 -7.54,-1.61 -9.13,-5.387 -9.76,-14.848 -0.33,-8.535 -0.33,-16.082 -0.33,-57.719 v -47.351"
         style="fill:#264391;fill-opacity:1;fill-rule:nonzero;stroke:none"
         id="path124" /><path
         d="m 2924.06,750.406 c 0.96,-9.465 2.84,-23.965 14.2,-27.789 7.88,-2.472 15.15,-2.472 17.99,-2.472 1.26,0 2.2,-0.653 2.2,-1.938 0,-1.559 -2.52,-2.516 -5.67,-2.516 -6.29,0 -37.23,0.329 -47.32,1.286 -6.62,0.628 -7.88,1.558 -7.88,2.843 0,0.957 0.63,1.891 1.86,2.192 1.59,0.328 1.92,4.429 1.26,9.488 l -13.24,136.254 h -0.63 l -66.9,-136.887 c -5.64,-11.679 -7.23,-14.219 -9.74,-14.219 -2.52,0 -4.11,2.54 -9.47,12.313 -7.25,13.234 -25.55,47.621 -32.5,62.172 -8.21,17.039 -30.61,62.097 -35.31,73.148 h -1.29 l -10.7,-121.101 c -0.32,-4.102 -0.32,-9.16 -0.32,-13.567 0,-4.105 2.52,-6.644 6.64,-7.601 4.71,-1.235 8.81,-1.563 10.7,-1.563 0.96,0 2.22,-0.957 2.22,-1.914 0,-1.887 -1.89,-2.515 -5.04,-2.515 -10.44,0 -23.66,0.957 -25.88,0.957 -2.54,0 -15.8,-0.957 -23.36,-0.957 -2.84,0 -4.73,0.628 -4.73,2.515 0,0.957 1.26,1.914 2.82,1.914 2.22,0 4.11,0.328 8.23,0.934 9.14,1.586 9.47,11.351 10.72,21.445 l 20.2,175.098 c 0.3,2.84 1.56,4.73 3.16,4.73 1.89,0 4.11,-0.933 5.67,-4.105 l 83.92,-166.559 80.75,166.231 c 1.24,2.543 2.52,4.433 4.41,4.433 1.91,0 3.47,-2.218 4.1,-7.25 l 18.93,-165"
         style="fill:#264391;fill-opacity:1;fill-rule:nonzero;stroke:none"
         id="path126" /><path
         d="m 3046.38,913.531 c 3.47,8.832 4.73,10.364 6.65,10.364 2.81,0 3.77,-3.75 6.59,-9.766 5.09,-11.352 49.54,-122.078 66.58,-162.758 10.09,-23.988 17.67,-27.437 23.66,-29.351 4.08,-1.258 8.21,-1.586 11.03,-1.586 1.58,0 3.47,-0.606 3.47,-2.211 0,-1.539 -3.14,-2.219 -6.29,-2.219 -4.13,0 -24.62,0 -43.85,0.68 -5.36,0.277 -9.79,0.277 -9.79,1.89 0,1.254 0.62,1.254 1.88,1.86 1.59,0.656 4.44,2.847 2.55,7.25 l -24.92,61.543 c -0.66,1.238 -0.96,1.566 -2.52,1.566 h -64.06 c -1.29,0 -2.22,-0.609 -2.85,-2.195 l -15.76,-42.914 c -2.54,-6.621 -4.1,-13.243 -4.1,-18 0,-5.36 4.73,-7.25 9.47,-7.25 h 2.52 c 2.18,0 2.84,-0.93 2.84,-2.211 0,-1.539 -1.59,-2.219 -4.1,-2.219 -6.63,0 -21.78,0.957 -24.93,0.957 -2.84,0 -16.71,-0.957 -28.06,-0.957 -3.47,0 -5.39,0.68 -5.39,2.219 0,1.281 1.26,2.211 2.52,2.211 1.91,0 5.99,0.328 8.23,0.656 12.59,1.562 17.97,11.023 23.33,24.594 z m 30.91,-111.691 c 1.26,0 1.26,0.629 0.96,1.89 l -27.44,73.5 c -1.59,4.102 -3.14,4.102 -4.73,0 l -25.88,-73.5 c -0.33,-1.261 0,-1.89 0.93,-1.89 h 56.16"
         style="fill:#264391;fill-opacity:1;fill-rule:nonzero;stroke:none"
         id="path128" /><path
         d="m 3232.15,793.934 c 0,-25.825 0,-46.965 1.26,-58.047 0.96,-7.875 2.22,-12.91 10.73,-14.192 3.78,-0.632 10.09,-1.261 12.63,-1.261 1.89,0 2.19,-1.258 2.19,-2.215 0,-1.258 -1.25,-2.188 -4.4,-2.188 -15.16,0 -32.83,0.93 -34.38,0.93 -1.26,0 -20.52,-0.93 -28.7,-0.93 -3.17,0 -4.43,0.629 -4.43,2.188 0,0.957 0.63,1.914 2.19,1.914 2.54,0 5.69,0.605 8.23,1.258 5.66,1.261 7.25,6.621 8.18,14.496 1.26,11.082 1.26,32.222 1.26,58.047 v 112.648 l -40.05,-0.629 c -17.37,-0.328 -23.99,-2.242 -28.07,-8.535 -3.17,-4.734 -3.5,-6.621 -4.42,-8.535 -0.63,-2.188 -1.59,-2.516 -2.85,-2.516 -0.61,0 -1.89,0.629 -1.89,2.219 0,2.863 5.37,26.805 5.99,29.019 0.3,1.583 1.89,5.036 2.82,5.036 1.92,0 4.73,-2.215 12.31,-3.149 7.9,-0.957 18.63,-1.285 21.8,-1.285 h 104.72 c 9.13,0 15.45,0.68 19.88,1.285 4.08,0.653 6.6,1.262 7.88,1.262 1.25,0 1.25,-1.566 1.25,-3.149 0,-8.183 -0.95,-27.437 -0.95,-30.609 0,-2.215 -1.23,-3.445 -2.52,-3.445 -1.26,0 -1.86,0.926 -2.21,4.73 l -0.31,2.844 c -0.92,8.207 -6.94,14.195 -33.45,14.828 l -34.69,0.629 V 793.934"
         style="fill:#264391;fill-opacity:1;fill-rule:nonzero;stroke:none"
         id="path130" /><path
         d="m 3354.83,841.285 c 0,41.629 0,49.207 -0.63,57.719 -0.63,9.16 -2.19,13.539 -11.35,14.824 -2.22,0.328 -6.95,0.629 -9.47,0.629 -0.95,0 -2.21,1.254 -2.21,2.215 0,1.586 1.26,2.215 4.41,2.215 12.63,0 30.63,-0.629 32.19,-0.629 1.89,0 59.94,-0.352 66.25,0 5.36,0.301 10.43,1.234 12.62,1.562 1.26,0.301 2.53,1.258 3.77,1.258 0.95,0 1.28,-1.258 1.28,-2.519 0,-1.887 -1.58,-5.036 -2.21,-12.614 -0.31,-2.511 -0.93,-14.519 -1.58,-17.691 -0.31,-1.262 -1.26,-2.82 -2.52,-2.82 -1.57,0 -2.19,1.261 -2.19,3.496 0,1.89 -0.33,6.293 -1.59,9.468 -1.89,4.379 -4.73,6.293 -19.89,8.18 -4.73,0.629 -36.92,0.93 -40.07,0.93 -1.26,0 -1.56,-0.93 -1.56,-2.817 v -72.898 c 0,-1.891 0,-2.82 1.56,-2.82 3.5,0 40.07,0 46.39,0.601 6.62,0.656 10.72,0.981 13.57,3.828 1.86,1.891 3.14,3.45 4.1,3.45 0.94,0 1.56,-0.633 1.56,-2.215 0,-1.563 -1.56,-5.989 -2.22,-14.801 -0.59,-5.387 -1.23,-15.481 -1.23,-17.371 0,-2.235 -0.62,-5.035 -2.52,-5.035 -1.28,0 -1.91,0.933 -1.91,2.496 0,2.539 0,5.363 -1.25,8.859 -0.96,3.75 -3.48,6.922 -14.23,8.184 -7.52,0.926 -37.2,1.285 -41.93,1.285 -1.59,0 -1.89,-0.984 -1.89,-1.918 v -22.402 c 0,-9.11 -0.33,-40.375 0,-45.711 0.63,-18 5.69,-21.469 33.12,-21.469 7.25,0 20.5,0 27.74,2.84 7.26,3.148 11.06,7.883 12.64,18.629 0.63,3.144 1.26,4.101 2.84,4.101 1.56,0 1.9,-2.242 1.9,-4.101 0,-1.891 -2.22,-20.215 -3.8,-25.903 -1.9,-6.922 -4.74,-6.922 -15.46,-6.922 -20.82,0 -36.91,0.633 -48.26,0.93 -11.68,0.652 -18.92,0.652 -23.03,0.652 -0.63,0 -5.99,0 -11.98,-0.324 -5.36,-0.328 -11.68,-0.625 -16.09,-0.625 -2.86,0 -4.43,0.625 -4.43,2.188 0,0.929 0.63,2.215 2.22,2.215 2.51,0 6.02,0.957 8.53,1.285 5.36,0.926 5.99,6.289 7.25,14.195 1.56,11.047 1.56,32.168 1.56,58.02 v 47.351"
         style="fill:#264391;fill-opacity:1;fill-rule:nonzero;stroke:none"
         id="path132" /><path
         d="m 3599.9,720.117 c -4.43,2.219 -4.73,3.5 -4.73,12.008 0,15.754 1.26,28.367 1.58,33.426 0.31,3.476 0.93,5.058 2.52,5.058 1.89,0 2.22,-0.953 2.22,-3.496 0,-2.82 0,-7.226 0.93,-11.679 4.73,-23.309 25.57,-32.141 46.72,-32.141 30.25,0 45.07,21.746 45.07,41.93 0,21.804 -9.13,34.41 -36.27,56.812 l -14.17,11.656 c -33.47,27.465 -41.02,47.02 -41.02,68.442 0,33.785 25.24,56.789 65.29,56.789 12.31,0 21.45,-1.231 29.35,-3.145 5.99,-1.261 8.5,-1.589 11.05,-1.589 2.52,0 3.15,-0.629 3.15,-2.188 0,-1.586 -1.26,-12.004 -1.26,-33.426 0,-5.035 -0.63,-7.25 -2.24,-7.25 -1.86,0 -2.2,1.563 -2.52,4.074 -0.27,3.778 -2.19,12.313 -4.08,15.782 -1.91,3.453 -10.42,16.715 -39.44,16.715 -21.77,0 -38.81,-13.563 -38.81,-36.571 0,-18 8.2,-29.351 38.5,-53.015 l 8.82,-6.946 c 37.25,-29.328 46.07,-48.906 46.07,-74.109 0,-12.961 -5.04,-36.922 -26.82,-52.406 -13.58,-9.438 -30.64,-13.239 -47.62,-13.239 -14.85,0 -29.35,2.188 -42.29,8.508"
         style="fill:#264391;fill-opacity:1;fill-rule:nonzero;stroke:none"
         id="path134" /><path
         d="m 3785.65,741.258 c -27.13,23.359 -33.73,53.949 -33.73,79.496 0,17.973 6.6,49.234 31.24,73.172 16.69,16.109 41.93,28.719 84.53,28.719 11.03,0 26.81,-0.957 40.35,-3.168 10.44,-1.864 19.28,-3.75 28.42,-4.079 2.84,0 3.47,-1.281 3.47,-2.82 0,-2.211 -0.63,-5.387 -1.26,-15.152 -0.33,-8.836 -0.33,-23.66 -0.63,-27.438 -0.33,-4.129 -1.58,-5.715 -3.14,-5.715 -1.92,0 -2.22,1.938 -2.22,5.715 0,10.399 -4.43,21.121 -11.68,26.809 -9.79,8.18 -29.95,14.824 -54.6,14.824 -35.61,0 -52.65,-9.437 -62.42,-18.629 -20.52,-18.949 -24.95,-42.89 -24.95,-70.023 0,-51.426 40.7,-97.137 100.01,-97.137 20.82,0 34.71,1.555 45.76,12.609 6,5.993 9.77,17.317 10.72,22.379 0.64,2.84 0.94,3.797 2.82,3.797 1.28,0 2.54,-1.887 2.54,-3.797 0,-1.89 -3.77,-25.25 -6.62,-34.386 -1.58,-5.032 -2.23,-5.965 -6.94,-7.879 -11.38,-4.43 -32.17,-6.016 -50.17,-6.016 -41.64,0 -69.72,9.789 -91.5,28.719"
         style="fill:#264391;fill-opacity:1;fill-rule:nonzero;stroke:none"
         id="path136" /><path
         d="m 4167.02,793.934 c 0,-25.825 0.32,-46.965 1.58,-58.047 0.94,-7.875 1.56,-12.91 10.1,-14.192 3.8,-0.632 10.08,-1.261 12.33,-1.261 1.87,0 2.49,-1.258 2.49,-2.215 0,-1.258 -1.58,-2.188 -4.74,-2.188 -15.12,0 -32.82,0.93 -34.38,0.93 -1.28,0 -19.25,-0.93 -27.43,-0.93 -3.18,0 -4.44,0.629 -4.44,2.188 0,0.957 0.64,2.215 2.22,2.215 2.52,0 5.67,0.629 8.18,1.261 5.72,1.282 6.65,6.645 7.58,14.52 1.25,11.055 1.25,31.215 1.25,57.117 v 26.809 c 0,1.254 -0.62,1.582 -1.55,1.582 h -115.79 c -0.94,0 -1.56,-0.328 -1.56,-1.582 v -26.809 c 0,-25.902 0,-46.363 1.26,-57.445 0.95,-7.875 1.88,-12.91 10.08,-14.192 4.12,-0.632 10.1,-1.261 12.64,-1.261 1.59,0 2.2,-1.258 2.2,-2.215 0,-1.258 -1.26,-2.188 -4.41,-2.188 -15.46,0 -33.13,0.93 -34.41,0.93 -1.56,0 -19.23,-0.93 -27.76,-0.93 -2.83,0 -4.41,0.629 -4.41,2.188 0,0.957 0.66,2.215 2.22,2.215 2.51,0 5.98,0.629 8.5,1.261 5.37,1.282 5.99,6.317 7.28,14.192 1.56,11.082 1.56,32.222 1.56,58.047 v 47.351 c 0,41.637 0,49.184 -0.63,57.719 -0.63,9.137 -2.22,13.57 -11.35,14.848 -2.22,0.277 -6.92,0.605 -9.49,0.605 -0.93,0 -2.17,1.262 -2.17,2.219 0,1.531 1.24,2.211 4.4,2.211 12.62,0 30.29,-0.68 31.85,-0.68 1.28,0 18.95,0.68 27.46,0.68 3.15,0 4.4,-0.68 4.4,-2.211 0,-0.957 -1.25,-2.219 -2.18,-2.219 -1.89,0 -3.8,0 -6.95,-0.605 -7.57,-1.61 -9.17,-5.387 -9.77,-14.848 -0.32,-8.535 -0.32,-16.715 -0.32,-58.399 v -5.64 c 0,-1.61 0.62,-1.61 1.56,-1.61 h 115.79 c 0.93,0 1.55,0 1.55,1.61 v 5.64 c 0,41.684 -0.29,49.864 -0.62,58.399 -0.63,9.137 -1.89,13.57 -11.03,14.848 -2.19,0.277 -6.94,0.605 -9.46,0.605 -1.26,0 -2.22,1.262 -2.22,2.219 0,1.531 1.28,2.211 4.44,2.211 12.28,0 30.25,-0.68 31.53,-0.68 1.56,0 19.26,0.68 27.44,0.68 3.17,0 4.74,-0.68 4.74,-2.211 0,-0.957 -1.26,-2.219 -2.52,-2.219 -1.9,0 -3.48,0 -6.96,-0.605 -7.21,-1.61 -8.82,-5.387 -9.46,-14.848 -0.62,-8.535 -0.62,-16.082 -0.62,-57.719 v -47.351"
         style="fill:#264391;fill-opacity:1;fill-rule:nonzero;stroke:none"
         id="path138" /><path
         d="m 4329.73,922.645 c 62.48,0 109.78,-38.184 109.78,-100.61 0,-59.961 -44.49,-109.496 -111.36,-109.496 -76.03,0 -108.52,57.113 -108.52,105.395 0,43.195 33.43,104.711 110.1,104.711 m 6.3,-199.032 c 24.94,0 75.11,13.219 75.11,90.821 0,64.363 -39.12,98.144 -82.99,98.144 -46.37,0 -79.8,-29.047 -79.8,-87.422 0,-62.449 37.53,-101.543 87.68,-101.543"
         style="fill:#264391;fill-opacity:1;fill-rule:nonzero;stroke:none"
         id="path140" /><path
         d="m 4575.42,922.645 c 62.49,0 109.78,-38.184 109.78,-100.61 0,-59.961 -44.47,-109.496 -111.36,-109.496 -76.01,0 -108.51,57.113 -108.51,105.395 0,43.195 33.42,104.711 110.09,104.711 m 6.3,-199.032 c 24.95,0 75.11,13.219 75.11,90.821 0,64.363 -39.14,98.144 -82.99,98.144 -46.36,0 -79.82,-29.047 -79.82,-87.422 0,-62.449 37.54,-101.543 87.7,-101.543"
         style="fill:#264391;fill-opacity:1;fill-rule:nonzero;stroke:none"
         id="path142" /><path
         d="m 4759.3,793.324 c 0,-39.418 0.63,-55.531 5.67,-60.261 4.42,-4.43 15.15,-6.321 36.9,-6.321 14.54,0 26.81,0.328 33.45,8.207 3.47,4.129 5.66,9.766 6.62,15.129 0.33,1.891 1.29,3.473 2.84,3.473 1.26,0 1.89,-1.231 1.89,-4.078 0,-2.844 -1.89,-18.93 -4.1,-26.832 -1.89,-6.317 -2.85,-7.25 -17.67,-7.25 -19.87,0 -35.32,0.328 -48.25,0.933 -12.62,0.324 -22.08,0.653 -30.29,0.653 -1.26,0 -5.98,0 -11.36,-0.329 -5.65,-0.324 -11.67,-0.601 -16.08,-0.601 -2.84,0 -4.42,0.601 -4.42,2.191 0,0.926 0.65,2.188 2.21,2.188 2.51,0 5.99,0.652 8.51,1.285 5.36,1.258 6.02,6.293 7.28,14.223 1.56,11.023 1.56,32.14 1.56,57.992 v 47.324 c 0,41.684 0,49.234 -0.64,57.742 -0.62,9.16 -2.18,13.543 -11.34,14.824 -2.22,0.329 -6.93,0.633 -9.48,0.633 -0.94,0 -2.18,1.258 -2.18,2.215 0,1.59 1.24,2.215 4.4,2.215 12.59,0 29.96,-0.625 31.54,-0.625 1.26,0 22.08,0.625 30.59,0.625 2.84,0 4.42,-0.625 4.42,-2.215 0,-0.957 -1.25,-1.914 -2.2,-1.914 -1.9,0 -6,-0.301 -9.15,-0.605 -8.2,-1.61 -9.79,-5.688 -10.42,-15.153 -0.3,-8.508 -0.3,-16.058 -0.3,-57.742 v -47.926"
         style="fill:#264391;fill-opacity:1;fill-rule:nonzero;stroke:none"
         id="path144" /><path
         d="m 340.172,954.313 c -42.289,3.39 -78.789,-19.235 -119.797,-26.512 -3.297,-0.528 -7.699,6.449 -11.68,10.422 19.008,14.351 16.418,42.465 -5.609,54.574 -1.484,1.762 -0.957,17.943 -0.102,18.673 1.813,1.49 15.86,-1.18 17.844,0.53 2.02,1.71 1.613,18.58 0.305,20.21 -1.231,1.62 -17.09,-0.1 -17.973,0.96 -0.902,1.11 0.43,16.24 -1.055,17.44 -1.058,0.86 -5.464,0.96 -7.906,0.94 -2.441,0.02 -6.844,-0.08 -7.906,-0.94 -1.484,-1.2 -0.148,-16.33 -1.078,-17.44 -0.86,-1.06 -16.692,0.66 -17.996,-0.96 -1.262,-1.63 -1.637,-18.5 0.347,-20.21 1.989,-1.71 16.039,0.96 17.848,-0.53 0.856,-0.73 1.383,-16.911 -0.125,-18.673 -22,-12.109 -24.59,-40.223 -5.586,-54.574 -3.98,-3.973 -8.387,-10.95 -11.656,-10.422 -41.031,7.277 -77.504,29.902 -119.8439,26.512 C 24.5664,952.367 5.23438,935.73 1.13281,911.793 -6.29297,868.699 24.668,835.574 39.6992,798.949 c 4.7539,-11.527 8.9336,-27.035 8.1758,-40.375 h 144.664 v -0.023 h 3.344 v 0.023 h 144.64 c -0.757,13.34 3.399,28.848 8.184,40.375 15.023,36.625 45.984,69.75 38.582,112.844 -4.125,23.937 -23.457,40.574 -47.117,42.52 M 176.703,816.367 C 172.906,794.723 160.875,781 150.855,780.926 c -6.519,-0.051 -11.785,2.441 -16.585,6.648 -6.575,5.735 -11.961,15.223 -10.223,20.813 1.461,1.914 19.207,-0.782 20.465,0.957 1.254,1.789 -2.168,15.582 -4.157,17.394 -2.011,1.785 -18.046,-0.605 -20.183,1.133 -2.145,1.762 -4.133,18.906 -6.32,19.938 0,0 -16.9653,2.511 -18.1723,0.097 -1.2344,-2.39 5.7113,-16.715 4.5313,-19.129 -1.1876,-2.441 -23.6368,2.118 -24.0157,-0.402 -0.3789,-2.516 1.2852,-15.129 3.4492,-16.992 2.1133,-1.836 23.0825,-1.988 23.0825,-1.988 4.351,-3.297 5.488,-10.043 5.511,-16.969 0.047,-8.731 -6.797,-13.285 -17.6716,-10.242 -20.2617,5.687 -45.3867,49.636 -60.3125,80.144 -10.9726,22.356 -17.5664,58.957 11.2031,69.934 17.5703,6.718 35.9688,2.89 54.8243,-2.672 19.7577,-5.914 45.8637,-13.844 61.2417,-23.383 3.778,-2.344 -4.531,-0.504 9.114,-30.707 6.367,-14.051 12.715,-44.031 10.066,-59.133 m 181.442,45.961 c -14.903,-30.508 -40.024,-74.457 -60.336,-80.144 -10.852,-3.043 -17.672,1.511 -17.649,10.242 0.028,6.926 1.156,13.672 5.539,16.969 0,0 20.918,0.152 23.055,1.988 2.168,1.863 3.828,14.476 3.453,16.992 -0.383,2.52 -22.832,-2.039 -24.019,0.402 -1.18,2.414 5.765,16.739 4.531,19.129 -1.254,2.414 -18.172,-0.097 -18.172,-0.097 -2.188,-1.032 -4.176,-18.176 -6.32,-19.938 -2.161,-1.738 -18.172,0.652 -20.161,-1.133 -2.011,-1.812 -5.433,-15.605 -4.179,-17.394 1.261,-1.739 19.008,0.957 20.492,-0.957 1.687,-5.59 -3.676,-15.078 -10.242,-20.813 -4.785,-4.207 -10.043,-6.699 -16.617,-6.648 -9.993,0.074 -22.051,13.797 -25.825,35.441 -2.672,15.102 3.7,45.082 10.043,59.133 13.645,30.203 5.387,28.363 9.137,30.707 15.402,9.539 41.484,17.469 61.242,23.383 18.879,5.562 37.281,9.39 54.852,2.672 28.746,-10.977 22.125,-47.578 11.176,-69.934 M 44.582,713.141 343.816,713.113 v 25.422 H 44.582 v -25.394"
         style="fill:#264391;fill-opacity:1;fill-rule:nonzero;stroke:none"
         id="path146" /></g></g></svg>
