<svg width="160" height="160" viewBox="0 0 160 160" fill="none" xmlns="http://www.w3.org/2000/svg">
<rect width="10" height="10" fill="#5785B9"/>
<rect x="30" width="10" height="10" fill="#5785B9"/>
<rect x="60" width="10" height="10" fill="#5785B9"/>
<rect x="90" width="10" height="10" fill="#5785B9"/>
<rect x="120" width="10" height="10" fill="#5785B9"/>
<rect x="150" width="10" height="10" fill="#5785B9"/>
<rect y="30" width="10" height="10" fill="#5785B9"/>
<rect y="60" width="10" height="10" fill="#5785B9"/>
<rect y="90" width="10" height="10" fill="#5785B9"/>
<rect y="120" width="10" height="10" fill="#5785B9"/>
<rect y="150" width="10" height="10" fill="#5785B9"/>
<rect x="30" y="30" width="10" height="10" fill="#5785B9"/>
<rect x="30" y="60" width="10" height="10" fill="#5785B9"/>
<rect x="30" y="120" width="10" height="10" fill="#5785B9"/>
<rect x="30" y="90" width="10" height="10" fill="#5785B9"/>
<rect x="30" y="150" width="10" height="10" fill="#5785B9"/>
<rect x="60" y="30" width="10" height="10" fill="#5785B9"/>
<rect x="60" y="120" width="10" height="10" fill="#5785B9"/>
<rect x="60" y="60" width="10" height="10" fill="#5785B9"/>
<rect x="60" y="90" width="10" height="10" fill="#5785B9"/>
<rect x="60" y="150" width="10" height="10" fill="#5785B9"/>
<rect x="90" y="30" width="10" height="10" fill="#5785B9"/>
<rect x="90" y="60" width="10" height="10" fill="#5785B9"/>
<rect x="90" y="90" width="10" height="10" fill="#5785B9"/>
<rect x="120" y="120" width="10" height="10" fill="#5785B9"/>
<rect x="90" y="120" width="10" height="10" fill="#5785B9"/>
<rect x="120" y="30" width="10" height="10" fill="#5785B9"/>
<rect x="120" y="60" width="10" height="10" fill="#5785B9"/>
<rect x="120" y="90" width="10" height="10" fill="#5785B9"/>
<rect x="150" y="120" width="10" height="10" fill="#5785B9"/>
<rect x="120" y="150" width="10" height="10" fill="#5785B9"/>
<rect x="90" y="150" width="10" height="10" fill="#5785B9"/>
<rect x="150" y="30" width="10" height="10" fill="#5785B9"/>
<rect x="150" y="60" width="10" height="10" fill="#5785B9"/>
<rect x="150" y="90" width="10" height="10" fill="#5785B9"/>
<rect x="150" y="150" width="10" height="10" fill="#5785B9"/>
</svg>
