<svg width="158" height="158" viewBox="0 0 158 158" fill="none" xmlns="http://www.w3.org/2000/svg">
<rect x="85.6768" y="11.0001" width="52.3076" height="52.3076" fill="#E4F0FE"/>
<rect x="57.7793" y="35.4106" width="9.76408" height="9.76408" fill="#E4F0FE"/>
<rect x="147.052" y="74.4668" width="9.76408" height="9.76408" fill="#E4F0FE"/>
<rect x="1.98438" y="63.3082" width="83.6921" height="83.6921" fill="#E4F0FE"/>
<path d="M117.934 137.41L98.7544 118.23L117.934 137.41ZM105.148 102.248C105.148 105.186 104.569 108.096 103.444 110.81C102.32 113.525 100.672 115.992 98.5938 118.07C96.516 120.148 94.0492 121.796 91.3345 122.92C88.6197 124.045 85.71 124.624 82.7715 124.624C79.8331 124.624 76.9234 124.045 74.2086 122.92C71.4938 121.796 69.0271 120.148 66.9493 118.07C64.8715 115.992 63.2233 113.525 62.0988 110.81C60.9743 108.096 60.3955 105.186 60.3955 102.248C60.3955 96.313 62.753 90.6216 66.9493 86.4253C71.1456 82.229 76.837 79.8715 82.7715 79.8715C88.706 79.8715 94.3974 82.229 98.5938 86.4253C102.79 90.6216 105.148 96.313 105.148 102.248Z" fill="#E4F0FE" stroke="#6191C8" stroke-width="6" stroke-linecap="round" stroke-linejoin="round"/>
</svg>
