<svg width="406" height="429" viewBox="0 0 406 429" fill="none" xmlns="http://www.w3.org/2000/svg">
<path fill-rule="evenodd" clip-rule="evenodd" d="M426.822 213.411C426.822 331.275 331.275 426.822 213.411 426.822C95.5474 426.822 0 331.275 0 213.411C0 95.5474 95.5474 0 213.411 0C331.275 0 426.822 95.5474 426.822 213.411ZM383.269 213.411C383.269 307.221 307.221 383.269 213.411 383.269C119.601 383.269 43.5533 307.221 43.5533 213.411C43.5533 119.601 119.601 43.5533 213.411 43.5533C307.221 43.5533 383.269 119.601 383.269 213.411Z" fill="#5A88BD"/>
<path fill-rule="evenodd" clip-rule="evenodd" d="M329.818 185.102C317.098 132.617 269.807 93.6396 213.411 93.6396C147.263 93.6396 93.6396 147.263 93.6396 213.411C93.6396 279.559 147.263 333.183 213.411 333.183C270.584 333.183 318.4 293.124 330.324 239.543H273.305C263.224 262.616 240.201 278.741 213.411 278.741C177.33 278.741 148.081 249.492 148.081 213.411C148.081 177.33 177.33 148.081 213.411 148.081C239.35 148.081 261.757 163.198 272.305 185.102H329.818Z" fill="#5A88BD"/>
</svg>
