<svg width="327" height="429" viewBox="0 0 327 429" fill="none" xmlns="http://www.w3.org/2000/svg">
<path d="M105.505 281.447L166.505 297.817L168.086 291.929C171.948 277.535 179.232 265.988 189.937 257.288C200.968 248.675 212.843 240.815 225.562 233.707C235.89 227.711 245.893 221.628 255.57 215.458C265.661 209.048 274.67 201.47 282.597 192.726C290.523 183.982 296.243 173.067 299.754 159.981C304.232 143.297 304.097 126.253 299.352 108.847C294.606 91.4414 285.21 75.7688 271.164 61.8292C257.117 47.8896 238.057 37.6894 213.982 31.2287C193.811 25.8157 174.376 24.8085 155.677 28.2072C137.391 31.366 121.199 38.4184 107.101 49.3643C93.3284 60.3975 82.52 74.6811 74.6757 92.215L130.262 122.913C136.402 109.13 145.449 99.4594 157.404 93.9002C169.772 88.1011 182.788 87.035 196.452 90.7019C211.743 94.8053 222.239 101.83 227.94 111.777C233.967 121.811 235.487 132.389 232.503 143.512C229.342 155.289 222.51 164.502 212.006 171.152C201.916 177.563 190.467 184.485 177.66 191.92C168.571 197.196 159.263 203.29 149.735 210.202C140.533 217.201 132.162 225.651 124.622 235.551C117.496 245.212 112.001 257.239 108.139 271.633L105.505 281.447ZM75.55 387.222L140.455 404.64L157.621 340.673L92.716 323.255L75.55 387.222Z" fill="#5A88BD"/>
</svg>
