<svg width="486" height="486" viewBox="0 0 486 486" fill="none" xmlns="http://www.w3.org/2000/svg">
<path fill-rule="evenodd" clip-rule="evenodd" d="M262.513 19.7522L276.226 34.3986C320.57 81.7608 381.934 109.653 446.852 111.953L465.151 112.602L468.152 130.618C472.112 154.383 473.167 178.999 470.946 204.075C459.01 338.839 356.58 443.819 228.693 464.836L223.009 465.77L217.577 463.852C95.3741 420.684 12.9937 299.311 24.9277 164.571L47.2287 166.546L24.9262 164.589C24.9267 164.583 24.9272 164.577 24.9277 164.571C27.0798 140.064 32.3423 115.93 40.5893 92.7479L46.7108 75.5403L64.8385 78.1181C129.15 87.2633 194.461 70.5912 246.439 31.7603L262.513 19.7522ZM77.5117 124.393C73.5145 138.812 70.8411 153.576 69.5312 168.503L69.5296 168.521C59.6139 280.473 126.674 381.611 227.083 419.77C332.637 399.854 416.427 312.097 426.344 200.125C427.691 184.917 427.617 169.932 426.241 155.281C363.045 148.874 303.674 121.938 257.297 78.6393C204.032 113.113 140.85 129.195 77.5117 124.393Z" fill="#5A88BD"/>
</svg>
